<svg width="205" height="49" viewBox="0 0 205 49" fill="none" xmlns="http://www.w3.org/2000/svg">
<path fill-rule="evenodd" clip-rule="evenodd" d="M7.57733 6.35394C7.167 5.51975 6.72921 4.71095 6.26726 3.93681C5.43092 2.53202 4.37352 1.05523 3.49329 0C4.96236 1.93885 6.3446 4.05263 7.47862 6.38464C6.83246 6.57654 6.20366 6.8416 5.60345 7.19875C-0.082219 10.5634 -1.32516 17.3364 2.66862 22.5513C3.50135 23.6324 4.4651 24.5568 5.4587 25.3983C6.00552 25.859 6.56308 26.2926 7.12559 26.7078C6.90288 27.0328 6.67242 27.3529 6.43505 27.665C6.20727 27.9652 5.97444 28.2602 5.73965 28.5506C4.757 29.762 3.7253 30.9164 2.7949 32.1373C2.33285 32.7491 1.88566 33.3724 1.50621 34.0329C1.30229 34.3561 1.14204 34.7014 0.964862 35.0387C0.88381 35.2099 0.814319 35.3875 0.738325 35.5619C0.659131 35.7349 0.590058 35.9123 0.533993 36.0945C0.260065 36.8082 0.118607 37.5591 0.0422001 38.3181C-0.0360649 39.0793 -0.00126782 39.8529 0.111896 40.6132C0.156708 40.9982 0.255827 41.3697 0.338739 41.7482C0.453349 42.1163 0.554433 42.4892 0.705284 42.8465C0.986542 43.5663 1.34246 44.2625 1.78819 44.898C2.65675 46.1846 3.85643 47.2599 5.25911 47.9584C8.06498 49.36 11.5075 49.3411 14.3368 47.9379C15.7524 47.2395 16.9999 46.1627 17.906 44.872C18.1485 44.5586 18.3356 44.2121 18.5443 43.8775C18.7175 43.5251 18.9147 43.1823 19.0545 42.8168C19.3715 42.0975 19.5863 41.3415 19.7425 40.5789C20.0097 39.1731 20.0405 37.6923 19.7215 36.2464C19.4142 34.7876 18.7865 33.427 17.9647 32.2331C17.1476 31.0327 16.1631 29.991 15.1249 29.0753C14.0862 28.1575 12.9969 27.3401 11.9117 26.5777C11.0593 25.9727 10.2095 25.405 9.40106 24.8326C9.49502 24.621 9.58651 24.4092 9.66973 24.196C10.7982 21.3418 11.0991 18.3028 10.8563 15.4414C11.0625 18.1258 10.7834 20.9133 9.83999 23.5402C9.68965 23.9596 9.51578 24.3721 9.33013 24.7822C9.13436 24.6423 8.93725 24.5024 8.74644 24.3606C8.73436 24.3525 8.72228 24.3428 8.71072 24.333C9.23359 23.1665 9.61283 21.9499 9.85547 20.7204C10.4666 17.636 10.2366 14.5264 9.545 11.6851C9.34985 10.8847 9.11217 10.1088 8.8433 9.35239C8.86839 9.34823 8.89265 9.34126 8.91774 9.33709L9.11774 9.29589L9.32022 9.28308L9.72321 9.25218C9.99414 9.24427 10.2754 9.26852 10.5513 9.27944C11.1031 9.3577 11.6601 9.45625 12.1964 9.66573C13.2721 10.0559 14.3076 10.6833 15.1697 11.5227C16.0351 12.3537 16.75 13.3558 17.2436 14.4393C17.3614 14.6784 17.4373 14.9429 17.5479 15.2087C17.6299 15.482 17.7076 15.7669 17.7806 16.06C17.8881 16.6495 17.9836 17.2927 17.9581 17.9656C17.9369 19.3071 17.5975 20.7409 17.0321 22.0024C16.4828 23.2784 15.7071 24.3563 15.0141 25.2134C14.3166 26.075 13.6653 26.6828 13.3906 27.2087C14.113 26.8778 14.8089 26.3996 15.4355 25.8545C16.0565 25.3026 16.5962 24.6821 17.1042 24.1061C16.9737 24.3702 16.8235 24.6576 16.6535 24.9493C16.4654 25.2235 16.2858 25.5374 16.0408 25.7945C16.2985 25.5776 16.5338 25.3073 16.7827 25.0608C16.9803 24.8268 17.1745 24.5928 17.3254 24.3543C17.0821 24.774 16.8383 25.1899 16.7901 25.4072C17.3955 24.8258 17.9391 23.7544 18.1685 23.1523C18.2099 23.0692 18.2729 22.8989 18.3378 22.6844C18.4029 22.4684 18.5009 22.2215 18.5613 21.9571C18.7128 21.4408 18.8142 20.907 18.9161 20.6886C18.8417 21.3171 18.7093 22.041 18.4865 22.7145C18.2855 23.4015 18.015 24.0407 17.8155 24.5718C17.9509 24.3842 18.0849 24.1989 18.2171 24.0133C18.3408 23.8209 18.4562 23.6274 18.5866 23.443C18.4207 23.9918 17.8161 24.9171 17.7368 25.2308C18.4695 24.3025 18.9458 23.3647 19.4418 22.2608C19.8449 21.3638 20.1237 20.5063 20.2165 19.5636C20.204 19.7045 20.1925 19.8526 20.1809 20.0034C20.1608 20.1531 20.1323 20.3062 20.1078 20.4629C20.081 20.6173 20.0548 20.776 20.0283 20.9321C19.9915 21.0886 19.9552 21.2423 19.9203 21.3955C19.8835 21.5487 19.8503 21.6987 19.8152 21.8456C19.7768 21.9888 19.7383 22.1289 19.7012 22.262C19.6374 22.5334 19.5792 22.7757 19.5307 22.978C19.6835 22.7551 19.7911 22.4996 19.8971 22.2411C20.0078 21.987 20.0882 21.7171 20.1624 21.449C20.1621 21.521 20.1713 21.566 20.1917 21.589C20.2645 21.3526 20.4144 21.0577 20.4623 20.8017C20.4788 20.8033 20.4987 20.7964 20.515 20.7922C20.5105 20.789 20.5052 20.786 20.5001 20.7842L20.5922 20.5958C22.83 12.9374 15.8028 4.02943 7.57733 6.35394ZM18.2498 42.3151C18.7594 41.2123 19.0725 40.0086 19.17 38.7712C19.2681 37.5368 19.1637 36.255 18.7834 35.0314C19.8248 37.8398 19.4969 41.1126 17.9887 43.7506C17.6172 44.416 17.1487 45.0228 16.6392 45.5893C16.1178 46.1473 15.5181 46.6299 14.881 47.0475C14.235 47.4543 13.5373 47.771 12.8202 48.02C12.0976 48.2573 11.3475 48.4029 10.5933 48.4814C9.08067 48.6135 7.53571 48.4145 6.12663 47.8586C4.71714 47.3064 3.46056 46.3884 2.52159 45.2059C0.623095 42.8636 -0.132606 39.5897 0.661401 36.7392C1.07234 35.3087 1.80327 33.982 2.69702 32.7479C3.57745 31.5071 4.60429 30.3429 5.59127 29.1242C5.91156 28.7262 6.23061 28.3257 6.54201 27.9128C6.80551 27.5636 7.06385 27.2075 7.3098 26.8415L7.93974 27.2939C7.60479 27.7976 7.25621 28.2794 6.89948 28.7468C6.46127 29.3246 6.0113 29.8792 5.56969 30.4202C3.96072 32.3935 2.41596 34.265 1.68494 36.3428C1.6108 36.6044 1.49661 36.8631 1.44932 37.1222L1.35619 37.5119L1.29496 37.9087C1.20843 38.4388 1.19842 38.9837 1.2202 39.5278C1.29021 40.6161 1.53987 41.7119 1.99366 42.7214C2.45097 43.7254 3.06955 44.6656 3.85716 45.4295C4.64456 46.1882 5.57671 46.7981 6.62193 47.1892C7.66746 47.5786 8.79818 47.7834 9.93818 47.7785C11.076 47.7635 12.2216 47.5538 13.3009 47.1411C14.3752 46.7151 15.3703 46.0779 16.2162 45.2514C17.0657 44.4276 17.7418 43.4143 18.2498 42.3151ZM11.532 29.8133C13.45 31.2293 15.1781 32.8207 16.2009 34.7141C16.3174 34.9549 16.4422 35.1901 16.5438 35.4345C16.6308 35.6824 16.7521 35.9241 16.8108 36.1709L16.9185 36.5391C16.9494 36.6642 16.9686 36.7928 16.9945 36.9181C17.0547 37.1665 17.0721 37.4261 17.1041 37.6816C17.203 38.7085 17.058 39.7631 16.7535 40.7502C16.3897 41.8966 15.7769 42.9894 14.9682 43.8605C14.557 44.2888 14.1182 44.6769 13.6232 44.9863C13.1247 45.2959 12.589 45.5524 12.0231 45.749C10.8828 46.1195 9.63947 46.2492 8.45775 46.0924C7.86633 46.0269 7.29473 45.875 6.75885 45.6755C6.4844 45.5861 6.23732 45.4524 5.97878 45.3392C5.74151 45.195 5.49133 45.0734 5.27171 44.9054C4.92933 44.688 4.59035 44.3689 4.23516 44.008C3.90104 43.6245 3.56443 43.1809 3.27585 42.6729C2.99355 42.1574 2.75215 41.5915 2.5728 40.9933C2.39707 40.3955 2.30373 39.7675 2.2741 39.1527C2.24209 38.5347 2.28907 37.9271 2.41452 37.3659C2.43476 37.2249 2.47347 37.08 2.51818 36.9361C2.56155 36.7909 2.5917 36.6479 2.63878 36.5063C2.74699 36.2237 2.82557 35.9419 2.95453 35.6695C3.41121 34.5785 4.00728 33.5779 4.43691 32.7703C3.75081 33.7626 3.13718 34.7421 2.6933 35.7235C2.57559 35.9694 2.49578 36.2173 2.38974 36.4612C2.3185 36.7109 2.22288 36.9596 2.16527 37.2037C2.11044 37.4465 2.04395 37.6877 2.01669 37.9395C1.96868 38.1853 1.95752 38.4404 1.93842 38.6957C1.88071 39.7161 2.04446 40.7719 2.36537 41.7706C2.7094 42.7623 3.21317 43.7015 3.8712 44.4815C2.30786 42.8814 1.40874 40.4723 1.58819 38.1836C1.6932 37.0598 2.03796 35.9293 2.63382 34.8314C3.21658 33.7325 3.98581 32.6612 4.83671 31.5779C5.519 30.7013 6.24765 29.8188 6.95306 28.8746C7.12446 28.6476 7.2939 28.4162 7.45972 28.181C7.65012 27.9103 7.83876 27.633 8.02182 27.3521C8.19209 27.471 8.36276 27.5913 8.53302 27.7083C9.56059 28.4132 10.571 29.0983 11.532 29.8133ZM10.0037 15.5661C10.1871 18.4369 9.79063 21.4666 8.54717 24.2095C7.62182 23.5157 6.74047 22.7924 5.9541 22.0202C2.54885 18.6862 1.42051 14.1465 5.84537 10.7071C6.72054 10.0444 7.71888 9.583 8.72827 9.37664C9.4085 11.3316 9.869 13.4101 10.0037 15.5661Z" fill="white"/>
<path d="M36.4855 34.4365C36.5827 34.4365 36.6591 34.4645 36.7148 34.5205C36.7703 34.5766 36.7981 34.6536 36.7981 34.7516V39.8045V39.8255C36.7912 40.3647 36.6591 40.855 36.402 41.2961C36.145 41.7374 35.7958 42.0822 35.3546 42.3309C34.9133 42.5795 34.4253 42.7038 33.8902 42.7038C33.3413 42.7038 32.8445 42.576 32.3998 42.3204C31.955 42.0648 31.6058 41.7128 31.3522 41.2646C31.0986 40.8164 30.9718 40.3157 30.9718 39.7624C30.9718 39.2162 31.0986 38.7189 31.3522 38.2707C31.6058 37.8225 31.955 37.4707 32.3998 37.215C32.8445 36.9594 33.3413 36.8316 33.8902 36.8316C34.3836 36.8316 34.83 36.9384 35.2295 37.152C35.6291 37.3656 35.9435 37.658 36.1728 38.0292V34.7516C36.1728 34.6536 36.2023 34.5766 36.2614 34.5205C36.3205 34.4645 36.3951 34.4365 36.4855 34.4365ZM33.8902 42.1155C34.321 42.1155 34.7101 42.0122 35.0576 41.8056C35.4049 41.5991 35.6777 41.3172 35.8757 40.96C36.0738 40.6028 36.1728 40.2037 36.1728 39.7624C36.1728 39.3213 36.0738 38.9221 35.8757 38.5649C35.6777 38.2078 35.4049 37.9276 35.0576 37.7245C34.7101 37.5215 34.321 37.4199 33.8902 37.4199C33.4594 37.4199 33.0703 37.5215 32.7229 37.7245C32.3754 37.9276 32.101 38.2078 31.8994 38.5649C31.6979 38.9221 31.5971 39.3213 31.5971 39.7624C31.5971 40.2037 31.6979 40.6028 31.8994 40.96C32.101 41.3172 32.3754 41.5991 32.7229 41.8056C33.0703 42.0122 33.4594 42.1155 33.8902 42.1155Z" fill="white"/>
<path d="M41.04 36.8421C41.5473 36.8421 42.0007 36.9629 42.4001 37.2045C42.7997 37.4461 43.1106 37.7806 43.333 38.2078C43.5553 38.6349 43.6665 39.1217 43.6665 39.6679C43.6665 39.759 43.6388 39.8307 43.5832 39.8832C43.5276 39.9358 43.4547 39.962 43.3643 39.962H38.9972C39.018 40.3752 39.1257 40.7447 39.3203 41.0703C39.5149 41.3959 39.7754 41.6498 40.102 41.8318C40.4286 42.014 40.7933 42.105 41.1963 42.105C41.4674 42.105 41.7401 42.0578 42.0146 41.9632C42.289 41.8687 42.5062 41.7443 42.666 41.5903C42.7354 41.5342 42.8084 41.5062 42.8848 41.5062C42.9613 41.5062 43.0238 41.5272 43.0724 41.5693C43.1489 41.6322 43.1871 41.7058 43.1871 41.7899C43.1871 41.8598 43.1558 41.9264 43.0933 41.9894C42.871 42.1925 42.5808 42.3606 42.223 42.4937C41.8652 42.6267 41.5229 42.6933 41.1963 42.6933C40.6474 42.6933 40.1593 42.5689 39.732 42.3203C39.3047 42.0717 38.9694 41.7251 38.7262 41.2804C38.483 40.8356 38.3615 40.3332 38.3615 39.7729C38.3615 39.2056 38.4743 38.6997 38.7001 38.255C38.9259 37.8103 39.2421 37.4636 39.6486 37.215C40.0551 36.9663 40.5189 36.8421 41.04 36.8421ZM41.04 37.4304C40.498 37.4304 40.0411 37.6124 39.6694 37.9766C39.2977 38.3407 39.0771 38.8205 39.0076 39.4157H43.062C43.0134 38.8205 42.8049 38.3407 42.4367 37.9766C42.0684 37.6124 41.6028 37.4304 41.04 37.4304Z" fill="white"/>
<path d="M47.3353 42.7038C46.8003 42.7038 46.3174 42.576 45.8865 42.3203C45.4558 42.0647 45.117 41.7128 44.8704 41.2646C44.6237 40.8164 44.5004 40.3191 44.5004 39.7729C44.5004 39.2197 44.615 38.7207 44.8443 38.276C45.0736 37.8312 45.3932 37.4812 45.8032 37.2255C46.2131 36.9699 46.6718 36.8421 47.179 36.8421C47.6237 36.8421 48.0302 36.9296 48.3985 37.1048C48.7667 37.2798 49.0863 37.5389 49.3574 37.882C49.406 37.9521 49.4303 38.0116 49.4303 38.0606C49.4303 38.1587 49.3816 38.2357 49.2844 38.2917C49.2357 38.3338 49.1801 38.3548 49.1176 38.3548C49.0203 38.3548 48.9404 38.3128 48.8779 38.2288C48.4332 37.6965 47.8669 37.4304 47.179 37.4304C46.776 37.4304 46.4181 37.5302 46.1054 37.7298C45.7928 37.9294 45.5513 38.2078 45.381 38.5649C45.2109 38.9221 45.1257 39.3247 45.1257 39.7729C45.1257 40.2141 45.2195 40.6133 45.4072 40.9705C45.5948 41.3276 45.8553 41.6078 46.1889 41.8108C46.5224 42.014 46.9045 42.1155 47.3353 42.1155C47.9467 42.1155 48.4367 41.9439 48.805 41.6008C48.8674 41.5378 48.9404 41.5062 49.0238 41.5062C49.1003 41.5062 49.1627 41.5308 49.2114 41.5798C49.2808 41.6428 49.3156 41.7199 49.3156 41.8108C49.3156 41.8879 49.2879 41.9509 49.2322 41.9999C48.9891 42.2241 48.7042 42.3973 48.3776 42.5199C48.051 42.6425 47.7036 42.7038 47.3353 42.7038Z" fill="white"/>
<path d="M53.5994 42.7038C53.0505 42.7038 52.5536 42.576 52.1089 42.3204C51.6642 42.0648 51.315 41.7128 51.0614 41.2646C50.8078 40.8164 50.6811 40.3192 50.6811 39.7729C50.6811 39.2197 50.8078 38.7189 51.0614 38.2707C51.315 37.8225 51.6642 37.4707 52.1089 37.215C52.5536 36.9594 53.0505 36.8316 53.5994 36.8316C54.1413 36.8316 54.6347 36.9594 55.0794 37.215C55.5241 37.4707 55.8733 37.8225 56.1269 38.2707C56.3805 38.7189 56.5073 39.2197 56.5073 39.7729C56.5073 40.3192 56.3805 40.8164 56.1269 41.2646C55.8733 41.7128 55.5241 42.0648 55.0794 42.3204C54.6347 42.576 54.1413 42.7038 53.5994 42.7038ZM53.5994 42.1156C54.0301 42.1156 54.4193 42.014 54.7667 41.8108C55.1141 41.6078 55.3869 41.3277 55.5849 40.9705C55.7829 40.6134 55.882 40.2142 55.882 39.7729C55.882 39.3318 55.7829 38.9326 55.5849 38.5754C55.3869 38.2183 55.1141 37.9364 54.7667 37.7298C54.4193 37.5231 54.0301 37.4199 53.5994 37.4199C53.1686 37.4199 52.7794 37.5231 52.432 37.7298C52.0846 37.9364 51.8101 38.2183 51.6087 38.5754C51.4071 38.9326 51.3063 39.3318 51.3063 39.7729C51.3063 40.2142 51.4071 40.6134 51.6087 40.9705C51.8101 41.3277 52.0846 41.6078 52.432 41.8108C52.7794 42.014 53.1686 42.1156 53.5994 42.1156Z" fill="white"/>
<path d="M60.489 36.8316C61.017 36.8316 61.2811 36.9471 61.2811 37.1783C61.2811 37.2133 61.2776 37.2413 61.2707 37.2623C61.2498 37.3393 61.2168 37.3936 61.1717 37.4251C61.1264 37.4566 61.0657 37.4724 60.9892 37.4724C60.9268 37.4724 60.8451 37.4654 60.7443 37.4514C60.6435 37.4374 60.5585 37.4304 60.489 37.4304C60.1415 37.4304 59.8322 37.5039 59.5613 37.651C59.2902 37.7981 59.0784 38.0011 58.9254 38.2602C58.7726 38.5193 58.6962 38.81 58.6962 39.1322V42.3257C58.6962 42.4167 58.6683 42.492 58.6128 42.5515C58.5572 42.611 58.4807 42.6408 58.3835 42.6408C58.2931 42.6408 58.2185 42.611 58.1594 42.5515C58.1003 42.492 58.0708 42.4167 58.0708 42.3257V37.2098C58.0708 37.1118 58.1003 37.0347 58.1594 36.9787C58.2185 36.9227 58.2931 36.8947 58.3835 36.8947C58.4807 36.8947 58.5572 36.9227 58.6128 36.9787C58.6683 37.0347 58.6962 37.1118 58.6962 37.2098V37.861C58.8977 37.5389 59.1548 37.2868 59.4674 37.1048C59.7801 36.9227 60.1207 36.8316 60.489 36.8316Z" fill="white"/>
<path d="M64.6163 36.8316C65.1583 36.8316 65.6516 36.9594 66.0964 37.215C66.5411 37.4707 66.8903 37.8225 67.1438 38.2707C67.3974 38.7189 67.5242 39.2197 67.5242 39.7729V42.3257C67.5242 42.4167 67.4965 42.492 67.4409 42.5515C67.3853 42.611 67.3088 42.6408 67.2116 42.6408C67.1212 42.6408 67.0466 42.611 66.9875 42.5515C66.9285 42.492 66.8989 42.4167 66.8989 42.3257V41.5063C66.6696 41.8775 66.3552 42.1698 65.9556 42.3834C65.5561 42.597 65.1097 42.7038 64.6163 42.7038C64.0674 42.7038 63.5706 42.576 63.1259 42.3204C62.6812 42.0648 62.332 41.7128 62.0784 41.2646C61.8248 40.8164 61.698 40.3192 61.698 39.7729C61.698 39.2197 61.8248 38.7189 62.0784 38.2707C62.332 37.8225 62.6812 37.4707 63.1259 37.215C63.5706 36.9594 64.0674 36.8316 64.6163 36.8316ZM64.6163 42.1156C65.0471 42.1156 65.4363 42.014 65.7837 41.8108C66.131 41.6078 66.4038 41.3277 66.6019 40.9705C66.7999 40.6134 66.8989 40.2142 66.8989 39.7729C66.8989 39.3318 66.7999 38.9326 66.6019 38.5754C66.4038 38.2183 66.131 37.9364 65.7837 37.7298C65.4363 37.5231 65.0471 37.4199 64.6163 37.4199C64.1856 37.4199 63.7964 37.5231 63.449 37.7298C63.1015 37.9364 62.8271 38.2183 62.6256 38.5754C62.4241 38.9326 62.3233 39.3318 62.3233 39.7729C62.3233 40.2142 62.4241 40.6134 62.6256 40.9705C62.8271 41.3277 63.1015 41.6078 63.449 41.8108C63.7964 42.014 64.1856 42.1156 64.6163 42.1156Z" fill="white"/>
<path d="M71.662 41.9999C71.7593 41.9999 71.8374 42.0297 71.8965 42.0892C71.9556 42.1487 71.9851 42.2276 71.9851 42.3256C71.9851 42.4167 71.9556 42.4919 71.8965 42.5515C71.8374 42.611 71.7593 42.6407 71.662 42.6407H71.4223C71.0401 42.6407 70.6997 42.5532 70.4009 42.3781C70.1021 42.203 69.8693 41.9632 69.7026 41.6586C69.5358 41.3539 69.4524 41.009 69.4524 40.6238V37.6719H68.6394C68.5561 37.6719 68.4883 37.6457 68.4362 37.5931C68.3841 37.5407 68.358 37.4724 68.358 37.3883C68.358 37.3043 68.3841 37.236 68.4362 37.1835C68.4883 37.131 68.5561 37.1048 68.6394 37.1048H69.4524V35.3925C69.4524 35.2943 69.4819 35.2155 69.541 35.156C69.6001 35.0965 69.6747 35.0667 69.765 35.0667C69.8623 35.0667 69.9406 35.0965 69.9996 35.156C70.0587 35.2155 70.0882 35.2943 70.0882 35.3925V37.1048H71.464C71.5474 37.1048 71.6151 37.131 71.6673 37.1835C71.7193 37.236 71.7454 37.3043 71.7454 37.3883C71.7454 37.4724 71.7193 37.5407 71.6673 37.5931C71.6151 37.6457 71.5474 37.6719 71.464 37.6719H70.0882V40.6238C70.0882 41.03 70.2133 41.3609 70.4635 41.6165C70.7135 41.8721 71.0366 41.9999 71.4327 41.9999H71.662Z" fill="white"/>
<path d="M73.809 42.6408C73.7187 42.6408 73.644 42.611 73.585 42.5515C73.5259 42.4919 73.4964 42.4167 73.4964 42.3257V37.2098C73.4964 37.1118 73.5259 37.0347 73.585 36.9787C73.644 36.9227 73.7187 36.8947 73.809 36.8947C73.9063 36.8947 73.9828 36.9227 74.0384 36.9787C74.0939 37.0347 74.1217 37.1118 74.1217 37.2098V42.3257C74.1217 42.4167 74.0939 42.4919 74.0384 42.5515C73.9828 42.611 73.9063 42.6408 73.809 42.6408ZM73.7986 35.6866C73.6596 35.6866 73.545 35.6393 73.4547 35.5447C73.3643 35.4502 73.3192 35.333 73.3192 35.1929C73.3192 35.0388 73.3678 34.9197 73.4651 34.8357C73.5624 34.7516 73.6771 34.7096 73.809 34.7096C73.9411 34.7096 74.054 34.7516 74.1478 34.8357C74.2416 34.9197 74.2885 35.0388 74.2885 35.1929C74.2885 35.333 74.2416 35.4502 74.1478 35.5447C74.054 35.6393 73.9376 35.6866 73.7986 35.6866Z" fill="white"/>
<path d="M78.8119 42.7038C78.2631 42.7038 77.7662 42.576 77.3215 42.3204C76.8768 42.0648 76.5276 41.7128 76.274 41.2646C76.0204 40.8164 75.8936 40.3192 75.8936 39.7729C75.8936 39.2197 76.0204 38.7189 76.274 38.2707C76.5276 37.8225 76.8768 37.4707 77.3215 37.215C77.7662 36.9594 78.2631 36.8316 78.8119 36.8316C79.3539 36.8316 79.8473 36.9594 80.292 37.215C80.7367 37.4707 81.0859 37.8225 81.3394 38.2707C81.593 38.7189 81.7198 39.2197 81.7198 39.7729C81.7198 40.3192 81.593 40.8164 81.3394 41.2646C81.0859 41.7128 80.7367 42.0648 80.292 42.3204C79.8473 42.576 79.3539 42.7038 78.8119 42.7038ZM78.8119 42.1156C79.2427 42.1156 79.6319 42.014 79.9793 41.8108C80.3267 41.6078 80.5994 41.3277 80.7975 40.9705C80.9955 40.6134 81.0945 40.2142 81.0945 39.7729C81.0945 39.3318 80.9955 38.9326 80.7975 38.5754C80.5994 38.2183 80.3267 37.9364 79.9793 37.7298C79.6319 37.5231 79.2427 37.4199 78.8119 37.4199C78.3812 37.4199 77.992 37.5231 77.6446 37.7298C77.2971 37.9364 77.0227 38.2183 76.8213 38.5754C76.6197 38.9326 76.5189 39.3318 76.5189 39.7729C76.5189 40.2142 76.6197 40.6134 76.8213 40.9705C77.0227 41.3277 77.2971 41.6078 77.6446 41.8108C77.992 42.014 78.3812 42.1156 78.8119 42.1156Z" fill="white"/>
<path d="M85.889 36.8211C86.3962 36.8211 86.8496 36.9261 87.2491 37.1362C87.6487 37.3463 87.9614 37.6527 88.1872 38.0554C88.4131 38.458 88.526 38.9395 88.526 39.4998V42.3256C88.526 42.4167 88.4965 42.4919 88.4374 42.5514C88.3784 42.611 88.3036 42.6407 88.2133 42.6407C88.123 42.6407 88.0483 42.611 87.9892 42.5514C87.9301 42.4919 87.9005 42.4167 87.9005 42.3256V39.4998C87.9005 38.8345 87.7147 38.3268 87.343 37.9766C86.9711 37.6264 86.4865 37.4514 85.889 37.4514C85.5207 37.4514 85.1854 37.5231 84.8832 37.6667C84.5809 37.8103 84.343 38.0099 84.1692 38.2655C83.9955 38.5211 83.9087 38.803 83.9087 39.1111V42.3256C83.9087 42.4167 83.8808 42.4919 83.8253 42.5514C83.7697 42.611 83.6932 42.6407 83.5959 42.6407C83.5056 42.6407 83.4309 42.611 83.3719 42.5514C83.3128 42.4919 83.2833 42.4167 83.2833 42.3256V37.2098C83.2833 37.1117 83.3128 37.0347 83.3719 36.9786C83.4309 36.9226 83.5056 36.8946 83.5959 36.8946C83.6932 36.8946 83.7697 36.9226 83.8253 36.9786C83.8808 37.0347 83.9087 37.1117 83.9087 37.2098V37.756C84.1449 37.4619 84.4332 37.2325 84.7737 37.0679C85.1142 36.9034 85.486 36.8211 85.889 36.8211Z" fill="white"/>
<path d="M99.3655 36.8211C99.7823 36.8211 100.154 36.9261 100.481 37.1362C100.807 37.3463 101.061 37.6387 101.242 38.0133C101.422 38.3881 101.513 38.8135 101.513 39.2897V42.3256C101.513 42.4167 101.485 42.4919 101.429 42.5514C101.374 42.611 101.297 42.6407 101.2 42.6407C101.11 42.6407 101.035 42.611 100.976 42.5514C100.917 42.4919 100.887 42.4167 100.887 42.3256V39.2897C100.887 38.7504 100.745 38.3092 100.46 37.9661C100.175 37.6229 99.8102 37.4514 99.3655 37.4514C98.8791 37.4514 98.4865 37.6124 98.1877 37.9346C97.8889 38.2568 97.7465 38.6839 97.7604 39.2161V39.2897V42.3256C97.7604 42.4167 97.7326 42.4919 97.677 42.5514C97.6214 42.611 97.545 42.6407 97.4477 42.6407C97.3574 42.6407 97.2827 42.611 97.2237 42.5514C97.1646 42.4919 97.1351 42.4167 97.1351 42.3256V39.2897C97.1351 38.7504 96.9926 38.3092 96.7077 37.9661C96.4228 37.6229 96.058 37.4514 95.6133 37.4514C95.1338 37.4514 94.7413 37.6054 94.4355 37.9135C94.1298 38.2217 93.977 38.6209 93.977 39.1111V42.3256C93.977 42.4167 93.9491 42.4919 93.8936 42.5514C93.838 42.611 93.7615 42.6407 93.6643 42.6407C93.5739 42.6407 93.4993 42.611 93.4402 42.5514C93.3811 42.4919 93.3516 42.4167 93.3516 42.3256V37.2098C93.3516 37.1117 93.3811 37.0347 93.4402 36.9786C93.4993 36.9226 93.5739 36.8946 93.6643 36.8946C93.7615 36.8946 93.838 36.9226 93.8936 36.9786C93.9491 37.0347 93.977 37.1117 93.977 37.2098V37.6195C94.1715 37.3673 94.4113 37.1712 94.6962 37.0312C94.981 36.8911 95.2868 36.8211 95.6133 36.8211C96.0163 36.8211 96.3776 36.9209 96.6973 37.1205C97.017 37.3201 97.2705 37.5949 97.4581 37.9451C97.6458 37.5949 97.9063 37.3201 98.2399 37.1205C98.5734 36.9209 98.9486 36.8211 99.3655 36.8211Z" fill="white"/>
<path d="M105.89 36.8316C106.432 36.8316 106.925 36.9594 107.37 37.215C107.815 37.4707 108.164 37.8225 108.418 38.2707C108.671 38.7189 108.798 39.2197 108.798 39.7729V42.3257C108.798 42.4167 108.77 42.492 108.715 42.5515C108.659 42.611 108.583 42.6408 108.485 42.6408C108.395 42.6408 108.32 42.611 108.261 42.5515C108.202 42.492 108.173 42.4167 108.173 42.3257V41.5063C107.943 41.8775 107.629 42.1698 107.229 42.3834C106.83 42.597 106.383 42.7038 105.89 42.7038C105.341 42.7038 104.844 42.576 104.4 42.3204C103.955 42.0648 103.606 41.7128 103.352 41.2646C103.099 40.8164 102.972 40.3192 102.972 39.7729C102.972 39.2197 103.099 38.7189 103.352 38.2707C103.606 37.8225 103.955 37.4707 104.4 37.215C104.844 36.9594 105.341 36.8316 105.89 36.8316ZM105.89 42.1156C106.321 42.1156 106.71 42.014 107.057 41.8108C107.405 41.6078 107.678 41.3277 107.876 40.9705C108.074 40.6134 108.173 40.2142 108.173 39.7729C108.173 39.3318 108.074 38.9326 107.876 38.5754C107.678 38.2183 107.405 37.9364 107.057 37.7298C106.71 37.5231 106.321 37.4199 105.89 37.4199C105.459 37.4199 105.07 37.5231 104.723 37.7298C104.375 37.9364 104.101 38.2183 103.899 38.5754C103.698 38.9326 103.597 39.3318 103.597 39.7729C103.597 40.2142 103.698 40.6134 103.899 40.9705C104.101 41.3277 104.375 41.6078 104.723 41.8108C105.07 42.014 105.459 42.1156 105.89 42.1156Z" fill="white"/>
<path d="M112.967 36.8211C113.474 36.8211 113.928 36.9261 114.327 37.1362C114.727 37.3463 115.039 37.6527 115.265 38.0554C115.491 38.458 115.604 38.9395 115.604 39.4998V42.3256C115.604 42.4167 115.575 42.4919 115.515 42.5514C115.456 42.611 115.382 42.6407 115.291 42.6407C115.201 42.6407 115.126 42.611 115.067 42.5514C115.008 42.4919 114.979 42.4167 114.979 42.3256V39.4998C114.979 38.8345 114.793 38.3268 114.421 37.9766C114.049 37.6264 113.565 37.4514 112.967 37.4514C112.599 37.4514 112.264 37.5231 111.961 37.6667C111.659 37.8103 111.421 38.0099 111.247 38.2655C111.074 38.5211 110.987 38.803 110.987 39.1111V42.3256C110.987 42.4167 110.959 42.4919 110.903 42.5514C110.848 42.611 110.771 42.6407 110.674 42.6407C110.584 42.6407 110.509 42.611 110.45 42.5514C110.391 42.4919 110.361 42.4167 110.361 42.3256V37.2098C110.361 37.1117 110.391 37.0347 110.45 36.9786C110.509 36.9226 110.584 36.8946 110.674 36.8946C110.771 36.8946 110.848 36.9226 110.903 36.9786C110.959 37.0347 110.987 37.1117 110.987 37.2098V37.756C111.223 37.4619 111.511 37.2325 111.852 37.0679C112.192 36.9034 112.564 36.8211 112.967 36.8211Z" fill="white"/>
<path d="M119.982 36.8316C120.524 36.8316 121.017 36.9594 121.462 37.215C121.906 37.4707 122.256 37.8225 122.509 38.2707C122.763 38.7189 122.89 39.2197 122.89 39.7729V42.3257C122.89 42.4167 122.862 42.492 122.806 42.5515C122.751 42.611 122.674 42.6408 122.577 42.6408C122.487 42.6408 122.412 42.611 122.353 42.5515C122.294 42.492 122.264 42.4167 122.264 42.3257V41.5063C122.035 41.8775 121.721 42.1698 121.321 42.3834C120.921 42.597 120.475 42.7038 119.982 42.7038C119.433 42.7038 118.936 42.576 118.491 42.3204C118.047 42.0648 117.697 41.7128 117.444 41.2646C117.19 40.8164 117.063 40.3192 117.063 39.7729C117.063 39.2197 117.19 38.7189 117.444 38.2707C117.697 37.8225 118.047 37.4707 118.491 37.215C118.936 36.9594 119.433 36.8316 119.982 36.8316ZM119.982 42.1156C120.412 42.1156 120.802 42.014 121.149 41.8108C121.496 41.6078 121.769 41.3277 121.967 40.9705C122.165 40.6134 122.264 40.2142 122.264 39.7729C122.264 39.3318 122.165 38.9326 121.967 38.5754C121.769 38.2183 121.496 37.9364 121.149 37.7298C120.802 37.5231 120.412 37.4199 119.982 37.4199C119.551 37.4199 119.162 37.5231 118.814 37.7298C118.467 37.9364 118.192 38.2183 117.991 38.5754C117.789 38.9326 117.689 39.3318 117.689 39.7729C117.689 40.2142 117.789 40.6134 117.991 40.9705C118.192 41.3277 118.467 41.6078 118.814 41.8108C119.162 42.014 119.551 42.1156 119.982 42.1156Z" fill="white"/>
<path d="M127.059 36.8316C127.621 36.8316 128.123 36.9576 128.565 37.2098C129.006 37.4619 129.35 37.8104 129.597 38.255C129.843 38.6997 129.967 39.2057 129.967 39.7729V41.8319C129.967 42.3922 129.841 42.9017 129.591 43.3604C129.341 43.8191 128.997 44.1797 128.559 44.4424C128.122 44.7049 127.635 44.8363 127.1 44.8363C126.551 44.8363 126.07 44.733 125.657 44.5263C125.243 44.3198 124.898 44.038 124.62 43.6807C124.564 43.6107 124.536 43.5407 124.536 43.4707C124.536 43.3866 124.571 43.3201 124.641 43.2711C124.696 43.2291 124.759 43.208 124.828 43.208C124.939 43.208 125.03 43.2535 125.099 43.3446C125.328 43.6247 125.612 43.8453 125.949 44.0064C126.286 44.1675 126.669 44.248 127.1 44.248C127.524 44.248 127.906 44.143 128.247 43.9329C128.587 43.7227 128.855 43.4339 129.049 43.0662C129.244 42.6985 129.341 42.2872 129.341 41.8319V41.3697C129.14 41.7829 128.839 42.1086 128.44 42.3467C128.04 42.5848 127.58 42.7038 127.059 42.7038C126.496 42.7038 125.994 42.5795 125.553 42.3309C125.111 42.0823 124.766 41.7356 124.516 41.2909C124.265 40.8462 124.14 40.3402 124.14 39.7729C124.14 39.2127 124.269 38.7084 124.526 38.2602C124.783 37.812 125.134 37.4619 125.579 37.2098C126.023 36.9576 126.517 36.8316 127.059 36.8316ZM127.059 42.1156C127.496 42.1156 127.889 42.0158 128.236 41.8162C128.584 41.6166 128.855 41.3399 129.049 40.9862C129.244 40.6326 129.341 40.2282 129.341 39.7729C129.341 39.3177 129.244 38.9116 129.049 38.5544C128.855 38.1973 128.584 37.9189 128.236 37.7193C127.889 37.5197 127.496 37.4199 127.059 37.4199C126.614 37.4199 126.218 37.5197 125.87 37.7193C125.523 37.9189 125.252 38.1973 125.057 38.5544C124.863 38.9116 124.766 39.3177 124.766 39.7729C124.766 40.2282 124.863 40.6326 125.057 40.9862C125.252 41.3399 125.523 41.6166 125.87 41.8162C126.218 42.0158 126.614 42.1156 127.059 42.1156Z" fill="white"/>
<path d="M133.896 36.8421C134.403 36.8421 134.857 36.9629 135.256 37.2045C135.656 37.4461 135.967 37.7806 136.189 38.2078C136.411 38.6349 136.522 39.1217 136.522 39.6679C136.522 39.759 136.495 39.8307 136.439 39.8832C136.383 39.9358 136.311 39.962 136.22 39.962H131.853C131.874 40.3752 131.982 40.7447 132.176 41.0703C132.371 41.3959 132.631 41.6498 132.958 41.8318C133.284 42.014 133.649 42.105 134.052 42.105C134.323 42.105 134.596 42.0578 134.871 41.9632C135.145 41.8687 135.362 41.7443 135.522 41.5903C135.591 41.5342 135.664 41.5062 135.741 41.5062C135.817 41.5062 135.88 41.5272 135.928 41.5693C136.005 41.6322 136.043 41.7058 136.043 41.7899C136.043 41.8598 136.012 41.9264 135.949 41.9894C135.727 42.1925 135.437 42.3606 135.079 42.4937C134.721 42.6267 134.379 42.6933 134.052 42.6933C133.503 42.6933 133.015 42.5689 132.588 42.3203C132.161 42.0717 131.825 41.7251 131.582 41.2804C131.339 40.8356 131.217 40.3332 131.217 39.7729C131.217 39.2056 131.33 38.6997 131.556 38.255C131.782 37.8103 132.098 37.4636 132.505 37.215C132.911 36.9663 133.375 36.8421 133.896 36.8421ZM133.896 37.4304C133.354 37.4304 132.897 37.6124 132.525 37.9766C132.154 38.3407 131.933 38.8205 131.864 39.4157H135.918C135.869 38.8205 135.661 38.3407 135.293 37.9766C134.924 37.6124 134.459 37.4304 133.896 37.4304Z" fill="white"/>
<path d="M143.891 36.8211C144.308 36.8211 144.68 36.9261 145.007 37.1362C145.333 37.3463 145.587 37.6387 145.767 38.0133C145.948 38.3881 146.038 38.8135 146.038 39.2897V42.3256C146.038 42.4167 146.011 42.4919 145.955 42.5514C145.899 42.611 145.823 42.6407 145.726 42.6407C145.635 42.6407 145.561 42.611 145.502 42.5514C145.443 42.4919 145.413 42.4167 145.413 42.3256V39.2897C145.413 38.7504 145.271 38.3092 144.986 37.9661C144.701 37.6229 144.336 37.4514 143.891 37.4514C143.405 37.4514 143.012 37.6124 142.713 37.9346C142.415 38.2568 142.272 38.6839 142.286 39.2161V39.2897V42.3256C142.286 42.4167 142.258 42.4919 142.203 42.5514C142.147 42.611 142.071 42.6407 141.973 42.6407C141.883 42.6407 141.808 42.611 141.749 42.5514C141.69 42.4919 141.661 42.4167 141.661 42.3256V39.2897C141.661 38.7504 141.518 38.3092 141.233 37.9661C140.949 37.6229 140.584 37.4514 140.139 37.4514C139.66 37.4514 139.267 37.6054 138.961 37.9135C138.656 38.2217 138.503 38.6209 138.503 39.1111V42.3256C138.503 42.4167 138.475 42.4919 138.419 42.5514C138.364 42.611 138.287 42.6407 138.19 42.6407C138.1 42.6407 138.025 42.611 137.966 42.5514C137.907 42.4919 137.877 42.4167 137.877 42.3256V37.2098C137.877 37.1117 137.907 37.0347 137.966 36.9786C138.025 36.9226 138.1 36.8946 138.19 36.8946C138.287 36.8946 138.364 36.9226 138.419 36.9786C138.475 37.0347 138.503 37.1117 138.503 37.2098V37.6195C138.697 37.3673 138.937 37.1712 139.222 37.0312C139.507 36.8911 139.813 36.8211 140.139 36.8211C140.542 36.8211 140.903 36.9209 141.223 37.1205C141.543 37.3201 141.796 37.5949 141.984 37.9451C142.172 37.5949 142.432 37.3201 142.766 37.1205C143.099 36.9209 143.474 36.8211 143.891 36.8211Z" fill="white"/>
<path d="M150.176 36.8421C150.684 36.8421 151.137 36.9629 151.536 37.2045C151.936 37.4461 152.247 37.7806 152.469 38.2078C152.692 38.6349 152.803 39.1217 152.803 39.6679C152.803 39.759 152.775 39.8307 152.719 39.8832C152.664 39.9358 152.591 39.962 152.501 39.962H148.133C148.154 40.3752 148.262 40.7447 148.456 41.0703C148.651 41.3959 148.912 41.6498 149.238 41.8318C149.565 42.014 149.93 42.105 150.333 42.105C150.604 42.105 150.876 42.0578 151.151 41.9632C151.425 41.8687 151.642 41.7443 151.802 41.5903C151.872 41.5342 151.945 41.5062 152.021 41.5062C152.098 41.5062 152.16 41.5272 152.209 41.5693C152.285 41.6322 152.323 41.7058 152.323 41.7899C152.323 41.8598 152.292 41.9264 152.23 41.9894C152.007 42.1925 151.717 42.3606 151.359 42.4937C151.001 42.6267 150.659 42.6933 150.333 42.6933C149.784 42.6933 149.296 42.5689 148.868 42.3203C148.441 42.0717 148.106 41.7251 147.862 41.2804C147.619 40.8356 147.498 40.3332 147.498 39.7729C147.498 39.2056 147.611 38.6997 147.836 38.255C148.062 37.8103 148.378 37.4636 148.785 37.215C149.191 36.9663 149.655 36.8421 150.176 36.8421ZM150.176 37.4304C149.634 37.4304 149.177 37.6124 148.806 37.9766C148.434 38.3407 148.213 38.8205 148.144 39.4157H152.198C152.15 38.8205 151.941 38.3407 151.573 37.9766C151.205 37.6124 150.739 37.4304 150.176 37.4304Z" fill="white"/>
<path d="M156.763 36.8211C157.271 36.8211 157.724 36.9261 158.124 37.1362C158.523 37.3463 158.836 37.6527 159.062 38.0554C159.287 38.458 159.4 38.9395 159.4 39.4998V42.3256C159.4 42.4167 159.371 42.4919 159.312 42.5514C159.253 42.611 159.178 42.6407 159.088 42.6407C158.997 42.6407 158.923 42.611 158.864 42.5514C158.805 42.4919 158.775 42.4167 158.775 42.3256V39.4998C158.775 38.8345 158.589 38.3268 158.217 37.9766C157.846 37.6264 157.361 37.4514 156.763 37.4514C156.395 37.4514 156.06 37.5231 155.758 37.6667C155.455 37.8103 155.217 38.0099 155.044 38.2655C154.87 38.5211 154.783 38.803 154.783 39.1111V42.3256C154.783 42.4167 154.755 42.4919 154.7 42.5514C154.644 42.611 154.568 42.6407 154.47 42.6407C154.38 42.6407 154.305 42.611 154.246 42.5514C154.187 42.4919 154.158 42.4167 154.158 42.3256V37.2098C154.158 37.1117 154.187 37.0347 154.246 36.9786C154.305 36.9226 154.38 36.8946 154.47 36.8946C154.568 36.8946 154.644 36.9226 154.7 36.9786C154.755 37.0347 154.783 37.1117 154.783 37.2098V37.756C155.019 37.4619 155.308 37.2325 155.648 37.0679C155.989 36.9034 156.36 36.8211 156.763 36.8211Z" fill="white"/>
<path d="M163.747 41.9999C163.844 41.9999 163.922 42.0297 163.981 42.0892C164.04 42.1487 164.07 42.2276 164.07 42.3256C164.07 42.4167 164.04 42.4919 163.981 42.5515C163.922 42.611 163.844 42.6407 163.747 42.6407H163.507C163.125 42.6407 162.784 42.5532 162.485 42.3781C162.187 42.203 161.954 41.9632 161.787 41.6586C161.62 41.3539 161.537 41.009 161.537 40.6238V37.6719H160.724C160.641 37.6719 160.573 37.6457 160.521 37.5931C160.469 37.5407 160.443 37.4724 160.443 37.3883C160.443 37.3043 160.469 37.236 160.521 37.1835C160.573 37.131 160.641 37.1048 160.724 37.1048H161.537V35.3925C161.537 35.2943 161.566 35.2155 161.626 35.156C161.685 35.0965 161.759 35.0667 161.85 35.0667C161.947 35.0667 162.025 35.0965 162.084 35.156C162.143 35.2155 162.173 35.2943 162.173 35.3925V37.1048H163.549C163.632 37.1048 163.7 37.131 163.752 37.1835C163.804 37.236 163.83 37.3043 163.83 37.3883C163.83 37.4724 163.804 37.5407 163.752 37.5931C163.7 37.6457 163.632 37.6719 163.549 37.6719H162.173V40.6238C162.173 41.03 162.298 41.3609 162.548 41.6165C162.798 41.8721 163.121 41.9999 163.517 41.9999H163.747Z" fill="white"/>
<path d="M170.365 42.7038C169.962 42.7038 169.569 42.632 169.187 42.4884C168.805 42.3449 168.489 42.1261 168.239 41.8319C168.19 41.7759 168.166 41.7128 168.166 41.6428C168.166 41.5448 168.211 41.4642 168.301 41.4012C168.343 41.3662 168.402 41.3487 168.479 41.3487C168.576 41.3487 168.656 41.3872 168.718 41.4642C169.066 41.8914 169.625 42.105 170.396 42.105C170.945 42.105 171.35 42.007 171.61 41.8108C171.871 41.6148 172.002 41.3626 172.002 41.0545C172.002 40.5013 171.47 40.1477 170.407 39.9935C169.733 39.8955 169.224 39.71 168.88 39.4368C168.536 39.1637 168.364 38.8346 168.364 38.4493C168.364 37.9381 168.55 37.5407 168.922 37.257C169.293 36.9735 169.778 36.8316 170.375 36.8316C171.251 36.8316 171.915 37.1467 172.366 37.777C172.408 37.8261 172.429 37.8856 172.429 37.9556C172.429 38.0537 172.373 38.1342 172.262 38.1973C172.193 38.2253 172.14 38.2392 172.106 38.2392C172.002 38.2392 171.915 38.1937 171.845 38.1027C171.491 37.6475 170.994 37.4199 170.355 37.4199C169.931 37.4199 169.594 37.5127 169.344 37.6983C169.093 37.8838 168.968 38.1132 168.968 38.3864C168.968 38.6665 169.088 38.8906 169.328 39.0586C169.568 39.2267 169.969 39.3528 170.532 39.4368C171.268 39.5419 171.798 39.7397 172.121 40.0303C172.444 40.3209 172.606 40.6729 172.606 41.086C172.606 41.4082 172.504 41.6918 172.299 41.937C172.093 42.1821 171.821 42.3711 171.48 42.5042C171.14 42.6372 170.768 42.7038 170.365 42.7038Z" fill="white"/>
<path d="M178.547 36.9051C178.679 36.9611 178.745 37.0417 178.745 37.1467C178.745 37.1747 178.731 37.2238 178.703 37.2938L175.201 44.9413C175.139 45.0673 175.059 45.1304 174.961 45.1304C174.92 45.1304 174.871 45.1199 174.816 45.0989C174.684 45.0429 174.618 44.9623 174.618 44.8572C174.618 44.8292 174.631 44.7802 174.659 44.7102L175.701 42.4411C175.695 42.4342 175.681 42.4096 175.66 42.3676L173.377 37.3253C173.349 37.2693 173.336 37.2133 173.336 37.1572C173.336 37.0522 173.395 36.9716 173.513 36.9157C173.568 36.8876 173.624 36.8736 173.68 36.8736C173.784 36.8736 173.864 36.9331 173.919 37.0522L176.035 41.7163L178.161 37.0627C178.224 36.9366 178.304 36.8736 178.401 36.8736C178.45 36.8736 178.498 36.8841 178.547 36.9051Z" fill="white"/>
<path d="M181.726 42.7038C181.323 42.7038 180.93 42.632 180.548 42.4884C180.166 42.3449 179.85 42.1261 179.6 41.8319C179.551 41.7759 179.527 41.7128 179.527 41.6428C179.527 41.5448 179.572 41.4642 179.662 41.4012C179.704 41.3662 179.763 41.3487 179.839 41.3487C179.937 41.3487 180.016 41.3872 180.079 41.4642C180.426 41.8914 180.986 42.105 181.757 42.105C182.306 42.105 182.711 42.007 182.971 41.8108C183.232 41.6148 183.362 41.3626 183.362 41.0545C183.362 40.5013 182.831 40.1477 181.767 39.9935C181.093 39.8955 180.584 39.71 180.241 39.4368C179.897 39.1637 179.725 38.8346 179.725 38.4493C179.725 37.9381 179.91 37.5407 180.282 37.257C180.654 36.9735 181.139 36.8316 181.736 36.8316C182.612 36.8316 183.275 37.1467 183.727 37.777C183.769 37.8261 183.789 37.8856 183.789 37.9556C183.789 38.0537 183.734 38.1342 183.623 38.1973C183.553 38.2253 183.501 38.2392 183.466 38.2392C183.362 38.2392 183.275 38.1937 183.206 38.1027C182.851 37.6475 182.355 37.4199 181.715 37.4199C181.292 37.4199 180.955 37.5127 180.704 37.6983C180.454 37.8838 180.329 38.1132 180.329 38.3864C180.329 38.6665 180.449 38.8906 180.689 39.0586C180.928 39.2267 181.33 39.3528 181.893 39.4368C182.629 39.5419 183.159 39.7397 183.482 40.0303C183.805 40.3209 183.967 40.6729 183.967 41.086C183.967 41.4082 183.864 41.6918 183.659 41.937C183.454 42.1821 183.181 42.3711 182.841 42.5042C182.501 42.6372 182.129 42.7038 181.726 42.7038Z" fill="white"/>
<path d="M187.948 41.9999C188.045 41.9999 188.124 42.0297 188.183 42.0892C188.242 42.1487 188.271 42.2276 188.271 42.3256C188.271 42.4167 188.242 42.4919 188.183 42.5515C188.124 42.611 188.045 42.6407 187.948 42.6407H187.708C187.326 42.6407 186.986 42.5532 186.687 42.3781C186.388 42.203 186.155 41.9632 185.989 41.6586C185.822 41.3539 185.739 41.009 185.739 40.6238V37.6719H184.926C184.842 37.6719 184.774 37.6457 184.722 37.5931C184.67 37.5407 184.644 37.4724 184.644 37.3883C184.644 37.3043 184.67 37.236 184.722 37.1835C184.774 37.131 184.842 37.1048 184.926 37.1048H185.739V35.3925C185.739 35.2943 185.768 35.2155 185.827 35.156C185.886 35.0965 185.961 35.0667 186.051 35.0667C186.148 35.0667 186.227 35.0965 186.286 35.156C186.345 35.2155 186.374 35.2943 186.374 35.3925V37.1048H187.75C187.833 37.1048 187.901 37.131 187.953 37.1835C188.005 37.236 188.032 37.3043 188.032 37.3883C188.032 37.4724 188.005 37.5407 187.953 37.5931C187.901 37.6457 187.833 37.6719 187.75 37.6719H186.374V40.6238C186.374 41.03 186.499 41.3609 186.75 41.6165C187 41.8721 187.323 41.9999 187.719 41.9999H187.948Z" fill="white"/>
<path d="M191.94 36.8421C192.447 36.8421 192.9 36.9629 193.3 37.2045C193.7 37.4461 194.01 37.7806 194.233 38.2078C194.455 38.6349 194.566 39.1217 194.566 39.6679C194.566 39.759 194.539 39.8307 194.483 39.8832C194.427 39.9358 194.354 39.962 194.264 39.962H189.897C189.918 40.3752 190.026 40.7447 190.22 41.0703C190.415 41.3959 190.675 41.6498 191.002 41.8318C191.328 42.014 191.693 42.105 192.096 42.105C192.367 42.105 192.64 42.0578 192.914 41.9632C193.189 41.8687 193.406 41.7443 193.566 41.5903C193.635 41.5342 193.708 41.5062 193.785 41.5062C193.861 41.5062 193.924 41.5272 193.972 41.5693C194.049 41.6322 194.087 41.7058 194.087 41.7899C194.087 41.8598 194.056 41.9264 193.993 41.9894C193.771 42.1925 193.481 42.3606 193.123 42.4937C192.765 42.6267 192.423 42.6933 192.096 42.6933C191.547 42.6933 191.059 42.5689 190.632 42.3203C190.204 42.0717 189.869 41.7251 189.626 41.2804C189.383 40.8356 189.261 40.3332 189.261 39.7729C189.261 39.2056 189.374 38.6997 189.6 38.255C189.826 37.8103 190.142 37.4636 190.548 37.215C190.955 36.9663 191.419 36.8421 191.94 36.8421ZM191.94 37.4304C191.398 37.4304 190.941 37.6124 190.569 37.9766C190.198 38.3407 189.977 38.8205 189.907 39.4157H193.962C193.913 38.8205 193.705 38.3407 193.337 37.9766C192.968 37.6124 192.503 37.4304 191.94 37.4304Z" fill="white"/>
<path d="M201.935 36.8211C202.352 36.8211 202.724 36.9261 203.051 37.1362C203.377 37.3463 203.631 37.6387 203.812 38.0133C203.992 38.3881 204.082 38.8135 204.082 39.2897V42.3256C204.082 42.4167 204.055 42.4919 203.999 42.5514C203.943 42.611 203.867 42.6407 203.77 42.6407C203.679 42.6407 203.605 42.611 203.546 42.5514C203.487 42.4919 203.457 42.4167 203.457 42.3256V39.2897C203.457 38.7504 203.315 38.3092 203.03 37.9661C202.745 37.6229 202.38 37.4514 201.935 37.4514C201.449 37.4514 201.056 37.6124 200.758 37.9346C200.459 38.2568 200.316 38.6839 200.33 39.2161V39.2897V42.3256C200.33 42.4167 200.302 42.4919 200.247 42.5514C200.191 42.611 200.115 42.6407 200.018 42.6407C199.927 42.6407 199.853 42.611 199.794 42.5514C199.734 42.4919 199.705 42.4167 199.705 42.3256V39.2897C199.705 38.7504 199.562 38.3092 199.278 37.9661C198.993 37.6229 198.628 37.4514 198.183 37.4514C197.704 37.4514 197.311 37.6054 197.005 37.9135C196.7 38.2217 196.547 38.6209 196.547 39.1111V42.3256C196.547 42.4167 196.519 42.4919 196.463 42.5514C196.408 42.611 196.331 42.6407 196.234 42.6407C196.144 42.6407 196.069 42.611 196.01 42.5514C195.951 42.4919 195.921 42.4167 195.921 42.3256V37.2098C195.921 37.1117 195.951 37.0347 196.01 36.9786C196.069 36.9226 196.144 36.8946 196.234 36.8946C196.331 36.8946 196.408 36.9226 196.463 36.9786C196.519 37.0347 196.547 37.1117 196.547 37.2098V37.6195C196.741 37.3673 196.981 37.1712 197.266 37.0312C197.551 36.8911 197.857 36.8211 198.183 36.8211C198.586 36.8211 198.947 36.9209 199.267 37.1205C199.587 37.3201 199.84 37.5949 200.028 37.9451C200.216 37.5949 200.476 37.3201 200.81 37.1205C201.143 36.9209 201.518 36.8211 201.935 36.8211Z" fill="white"/>
<path d="M35.795 27.9806C34.9112 27.9806 34.0502 27.8232 33.212 27.5083C32.3738 27.1934 31.6804 26.7135 31.1317 26.0684C31.0251 25.9455 30.9718 25.8073 30.9718 25.6537C30.9718 25.4386 31.0708 25.262 31.269 25.1238C31.3603 25.047 31.4899 25.0086 31.6575 25.0086C31.8709 25.0086 32.0461 25.093 32.1833 25.262C32.9453 26.1989 34.1721 26.6674 35.8637 26.6674C37.0676 26.6674 37.9552 26.4524 38.5267 26.0223C39.0982 25.5922 39.3839 25.0393 39.3839 24.3635C39.3839 23.1501 38.2181 22.3744 35.8865 22.0365C34.4082 21.8215 33.292 21.4143 32.5376 20.8153C31.7833 20.2163 31.4061 19.4944 31.4061 18.6496C31.4061 17.5284 31.8137 16.6568 32.6291 16.0347C33.4444 15.4126 34.5074 15.1016 35.8179 15.1016C37.7381 15.1016 39.1934 15.7927 40.184 17.1751C40.2754 17.2826 40.3212 17.4132 40.3212 17.5668C40.3212 17.7818 40.1993 17.9584 39.9554 18.0967C39.803 18.1581 39.6887 18.1888 39.6125 18.1888C39.3839 18.1888 39.1934 18.089 39.041 17.8893C38.2639 16.891 37.1742 16.3918 35.7722 16.3918C34.8426 16.3918 34.1034 16.5953 33.5549 17.0024C33.0063 17.4094 32.7319 17.9124 32.7319 18.5114C32.7319 19.1258 32.9948 19.6173 33.5206 19.9859C34.0463 20.3545 34.9264 20.631 36.1608 20.8153C37.7762 21.0457 38.9382 21.4797 39.6468 22.1171C40.3554 22.7545 40.7098 23.5264 40.7098 24.4326C40.7098 25.1391 40.485 25.7612 40.0355 26.2988C39.5859 26.8364 38.9878 27.2511 38.241 27.5429C37.4942 27.8347 36.6789 27.9806 35.795 27.9806Z" fill="white"/>
<path d="M53.7395 15.2628C54.0292 15.3857 54.1739 15.5624 54.1739 15.7927C54.1739 15.8542 54.1435 15.9617 54.0824 16.1153L46.4017 32.888C46.2646 33.1645 46.0893 33.3027 45.876 33.3027C45.7846 33.3027 45.6778 33.2797 45.556 33.2336C45.2664 33.1107 45.1216 32.9341 45.1216 32.7037C45.1216 32.6423 45.1521 32.5347 45.2131 32.3811L47.499 27.4047C47.4837 27.3893 47.4533 27.3355 47.4075 27.2434L42.4013 16.1844C42.3404 16.0615 42.31 15.9387 42.31 15.8158C42.31 15.5854 42.4394 15.4088 42.6986 15.2859C42.8204 15.2244 42.9424 15.1937 43.0643 15.1937C43.2929 15.1937 43.4681 15.3243 43.5901 15.5854L48.2305 25.8149L52.8938 15.6084C53.0309 15.332 53.2061 15.1937 53.4196 15.1937C53.5262 15.1937 53.6329 15.2168 53.7395 15.2628Z" fill="white"/>
<path d="M69.6497 15.0785C70.5641 15.0785 71.3794 15.3089 72.0956 15.7697C72.8119 16.2305 73.3681 16.8718 73.7644 17.6935C74.1606 18.5153 74.3587 19.4483 74.3587 20.4928V27.1512C74.3587 27.3509 74.2978 27.516 74.1759 27.6465C74.0539 27.7771 73.8863 27.8424 73.6729 27.8424C73.4749 27.8424 73.311 27.7771 73.1814 27.6465C73.052 27.516 72.9872 27.3509 72.9872 27.1512V20.4928C72.9872 19.3101 72.6748 18.3424 72.0499 17.5898C71.4251 16.8372 70.625 16.4609 69.6497 16.4609C68.5829 16.4609 67.7219 16.8142 67.0666 17.5207C66.4113 18.2272 66.0989 19.1642 66.1294 20.3315V20.4928V27.1512C66.1294 27.3509 66.0684 27.516 65.9465 27.6465C65.8246 27.7771 65.6569 27.8424 65.4436 27.8424C65.2455 27.8424 65.0816 27.7771 64.9521 27.6465C64.8226 27.516 64.7578 27.3509 64.7578 27.1512V20.4928C64.7578 19.3101 64.4454 18.3424 63.8206 17.5898C63.1958 16.8372 62.3957 16.4609 61.4204 16.4609C60.3689 16.4609 59.5078 16.7988 58.8373 17.4746C58.1667 18.1504 57.8315 19.0259 57.8315 20.1011V27.1512C57.8315 27.3509 57.7706 27.516 57.6486 27.6465C57.5267 27.7771 57.359 27.8424 57.1457 27.8424C56.9475 27.8424 56.7838 27.7771 56.6542 27.6465C56.5247 27.516 56.4599 27.3509 56.4599 27.1512V15.931C56.4599 15.7159 56.5247 15.547 56.6542 15.4241C56.7838 15.3012 56.9475 15.2398 57.1457 15.2398C57.359 15.2398 57.5267 15.3012 57.6486 15.4241C57.7706 15.547 57.8315 15.7159 57.8315 15.931V16.8295C58.2582 16.2766 58.784 15.8465 59.4088 15.5393C60.0335 15.2321 60.7042 15.0785 61.4204 15.0785C62.3042 15.0785 63.0967 15.2974 63.7978 15.7351C64.4988 16.1728 65.055 16.7758 65.4664 17.5437C65.8779 16.7758 66.4494 16.1728 67.1809 15.7351C67.9124 15.2974 68.7353 15.0785 69.6497 15.0785Z" fill="white"/>
<path d="M83.9596 15.1016C85.1482 15.1016 86.2302 15.3819 87.2055 15.9426C88.181 16.5032 88.9467 17.2749 89.5029 18.258C90.0592 19.241 90.3373 20.3392 90.3373 21.5527V27.1512C90.3373 27.3509 90.2763 27.516 90.1544 27.6465C90.0325 27.7771 89.8649 27.8424 89.6515 27.8424C89.4534 27.8424 89.2896 27.7771 89.1601 27.6465C89.0305 27.516 88.9658 27.3509 88.9658 27.1512V25.3542C88.4628 26.1682 87.7732 26.8094 86.897 27.2779C86.0207 27.7464 85.0416 27.9806 83.9596 27.9806C82.7557 27.9806 81.6661 27.7003 80.6907 27.1397C79.7153 26.579 78.9496 25.8073 78.3933 24.8243C77.8371 23.8412 77.559 22.7507 77.559 21.5527C77.559 20.3392 77.8371 19.241 78.3933 18.258C78.9496 17.2749 79.7153 16.5032 80.6907 15.9426C81.6661 15.3819 82.7557 15.1016 83.9596 15.1016ZM83.9596 26.6904C84.9045 26.6904 85.7578 26.4677 86.5198 26.0223C87.2817 25.5769 87.88 24.9625 88.3143 24.1792C88.7485 23.3958 88.9658 22.5203 88.9658 21.5527C88.9658 20.5849 88.7485 19.7094 88.3143 18.9261C87.88 18.1428 87.2817 17.5246 86.5198 17.0715C85.7578 16.6184 84.9045 16.3918 83.9596 16.3918C83.0147 16.3918 82.1613 16.6184 81.3994 17.0715C80.6374 17.5246 80.0354 18.1428 79.5935 18.9261C79.1515 19.7094 78.9305 20.5849 78.9305 21.5527C78.9305 22.5203 79.1515 23.3958 79.5935 24.1792C80.0354 24.9625 80.6374 25.5769 81.3994 26.0223C82.1613 26.4677 83.0147 26.6904 83.9596 26.6904Z" fill="white"/>
<path d="M105.173 9.84861C105.386 9.84861 105.554 9.91001 105.676 10.0329C105.798 10.1558 105.859 10.3248 105.859 10.5398V21.6218V21.6679C105.844 22.8506 105.554 23.9257 104.99 24.8934C104.426 25.861 103.661 26.6175 102.693 27.1628C101.725 27.7081 100.654 27.9806 99.4811 27.9806C98.2772 27.9806 97.1876 27.7004 96.2122 27.1398C95.2368 26.5791 94.4711 25.8073 93.9148 24.8243C93.3586 23.8412 93.0805 22.743 93.0805 21.5296C93.0805 20.3316 93.3586 19.2411 93.9148 18.2581C94.4711 17.275 95.2368 16.5032 96.2122 15.9426C97.1876 15.3819 98.2772 15.1016 99.4811 15.1016C100.563 15.1016 101.542 15.3358 102.419 15.8043C103.295 16.2728 103.984 16.914 104.487 17.7281V10.5398C104.487 10.3248 104.552 10.1558 104.682 10.0329C104.811 9.91001 104.975 9.84861 105.173 9.84861ZM99.4811 26.6904C100.426 26.6904 101.279 26.4639 102.041 26.0108C102.803 25.5577 103.402 24.9394 103.836 24.1561C104.27 23.3728 104.487 22.4973 104.487 21.5296C104.487 20.562 104.27 19.6865 103.836 18.9032C103.402 18.1198 102.803 17.5054 102.041 17.06C101.279 16.6145 100.426 16.3918 99.4811 16.3918C98.5363 16.3918 97.6828 16.6145 96.9209 17.06C96.1589 17.5054 95.5569 18.1198 95.115 18.9032C94.673 19.6865 94.452 20.562 94.452 21.5296C94.452 22.4973 94.673 23.3728 95.115 24.1561C95.5569 24.9394 96.1589 25.5577 96.9209 26.0108C97.6828 26.4639 98.5363 26.6904 99.4811 26.6904Z" fill="white"/>
<path d="M115.163 15.1246C116.275 15.1246 117.269 15.3896 118.146 15.9195C119.022 16.4494 119.704 17.1828 120.192 18.1198C120.679 19.0567 120.923 20.1242 120.923 21.3223C120.923 21.522 120.862 21.6793 120.74 21.7945C120.618 21.9097 120.458 21.9674 120.26 21.9674H110.682C110.728 22.8736 110.964 23.6838 111.391 24.398C111.817 25.1122 112.389 25.669 113.105 26.0684C113.821 26.4677 114.622 26.6674 115.505 26.6674C116.1 26.6674 116.698 26.5638 117.3 26.3564C117.902 26.1491 118.378 25.8764 118.729 25.5385C118.881 25.4156 119.041 25.3542 119.209 25.3542C119.376 25.3542 119.513 25.4002 119.62 25.4924C119.788 25.6306 119.872 25.7919 119.872 25.9762C119.872 26.1298 119.803 26.2757 119.666 26.414C119.178 26.8594 118.542 27.228 117.757 27.5198C116.972 27.8117 116.222 27.9576 115.505 27.9576C114.302 27.9576 113.231 27.685 112.294 27.1398C111.357 26.5945 110.621 25.8341 110.088 24.8588C109.554 23.8834 109.288 22.7814 109.288 21.5527C109.288 20.3085 109.535 19.1988 110.031 18.2234C110.526 17.2481 111.219 16.4878 112.111 15.9426C113.002 15.3973 114.02 15.1246 115.163 15.1246ZM115.163 16.4148C113.974 16.4148 112.972 16.8142 112.157 17.613C111.341 18.4116 110.857 19.4638 110.705 20.7693H119.597C119.491 19.4638 119.033 18.4116 118.226 17.613C117.418 16.8142 116.397 16.4148 115.163 16.4148Z" fill="white"/>
<path d="M128.969 27.9806C127.796 27.9806 126.737 27.7004 125.792 27.1398C124.847 26.5791 124.104 25.8073 123.563 24.8243C123.022 23.8412 122.752 22.7507 122.752 21.5527C122.752 20.3393 123.003 19.2449 123.506 18.2695C124.009 17.2942 124.71 16.5262 125.609 15.9656C126.508 15.405 127.514 15.1246 128.627 15.1246C129.602 15.1246 130.493 15.3166 131.301 15.7006C132.109 16.0846 132.81 16.6529 133.404 17.4056C133.511 17.5592 133.564 17.6896 133.564 17.7972C133.564 18.0122 133.458 18.1813 133.244 18.3041C133.138 18.3963 133.016 18.4424 132.878 18.4424C132.665 18.4424 132.49 18.3502 132.353 18.1659C131.377 16.9985 130.135 16.4148 128.627 16.4148C127.743 16.4148 126.958 16.6337 126.272 17.0715C125.586 17.5092 125.057 18.1198 124.683 18.9032C124.31 19.6865 124.123 20.5697 124.123 21.5527C124.123 22.5203 124.329 23.3958 124.741 24.1792C125.152 24.9625 125.724 25.5769 126.455 26.0223C127.186 26.4677 128.025 26.6904 128.969 26.6904C130.311 26.6904 131.385 26.3141 132.193 25.5615C132.33 25.4233 132.49 25.3542 132.673 25.3542C132.84 25.3542 132.977 25.4079 133.084 25.5154C133.237 25.6537 133.313 25.8226 133.313 26.0223C133.313 26.1913 133.252 26.3295 133.13 26.437C132.596 26.9285 131.972 27.3087 131.255 27.5775C130.539 27.8463 129.777 27.9806 128.969 27.9806Z" fill="white"/>
<path d="M142.708 27.9806C141.504 27.9806 140.414 27.7003 139.439 27.1397C138.464 26.579 137.698 25.8073 137.142 24.8243C136.585 23.8412 136.307 22.7507 136.307 21.5527C136.307 20.3392 136.585 19.241 137.142 18.258C137.698 17.2749 138.464 16.5032 139.439 15.9426C140.414 15.3819 141.504 15.1016 142.708 15.1016C143.897 15.1016 144.979 15.3819 145.954 15.9426C146.929 16.5032 147.695 17.2749 148.251 18.258C148.808 19.241 149.086 20.3392 149.086 21.5527C149.086 22.7507 148.808 23.8412 148.251 24.8243C147.695 25.8073 146.929 26.579 145.954 27.1397C144.979 27.7003 143.897 27.9806 142.708 27.9806ZM142.708 26.6904C143.653 26.6904 144.506 26.4677 145.268 26.0223C146.03 25.5769 146.628 24.9625 147.063 24.1792C147.497 23.3958 147.714 22.5203 147.714 21.5527C147.714 20.5849 147.497 19.7094 147.063 18.9261C146.628 18.1428 146.03 17.5246 145.268 17.0715C144.506 16.6184 143.653 16.3918 142.708 16.3918C141.763 16.3918 140.91 16.6184 140.148 17.0715C139.386 17.5246 138.784 18.1428 138.342 18.9261C137.9 19.7094 137.679 20.5849 137.679 21.5527C137.679 22.5203 137.9 23.3958 138.342 24.1792C138.784 24.9625 139.386 25.5769 140.148 26.0223C140.91 26.4677 141.763 26.6904 142.708 26.6904Z" fill="white"/>
<path d="M152.766 28.211C152.431 28.211 152.153 28.0996 151.932 27.8769C151.711 27.6542 151.6 27.3739 151.6 27.036C151.6 26.7135 151.715 26.4408 151.943 26.2181C152.172 25.9954 152.446 25.8841 152.766 25.8841C153.086 25.8841 153.357 25.9954 153.577 26.2181C153.798 26.4408 153.909 26.7135 153.909 27.036C153.909 27.3586 153.798 27.635 153.577 27.8654C153.357 28.0958 153.086 28.211 152.766 28.211Z" fill="white"/>
<path d="M162.641 27.9806C161.468 27.9806 160.409 27.7004 159.464 27.1398C158.519 26.5791 157.776 25.8073 157.235 24.8243C156.694 23.8412 156.424 22.7507 156.424 21.5527C156.424 20.3393 156.675 19.2449 157.178 18.2695C157.681 17.2942 158.382 16.5262 159.281 15.9656C160.18 15.405 161.186 15.1246 162.298 15.1246C163.274 15.1246 164.165 15.3166 164.973 15.7006C165.78 16.0846 166.482 16.6529 167.076 17.4056C167.183 17.5592 167.236 17.6896 167.236 17.7972C167.236 18.0122 167.129 18.1813 166.916 18.3041C166.809 18.3963 166.687 18.4424 166.55 18.4424C166.337 18.4424 166.161 18.3502 166.024 18.1659C165.049 16.9985 163.807 16.4148 162.298 16.4148C161.414 16.4148 160.63 16.6337 159.944 17.0715C159.258 17.5092 158.728 18.1198 158.355 18.9032C157.982 19.6865 157.795 20.5697 157.795 21.5527C157.795 22.5203 158.001 23.3958 158.412 24.1792C158.824 24.9625 159.395 25.5769 160.127 26.0223C160.858 26.4677 161.696 26.6904 162.641 26.6904C163.982 26.6904 165.057 26.3141 165.864 25.5615C166.001 25.4233 166.162 25.3542 166.344 25.3542C166.512 25.3542 166.649 25.4079 166.756 25.5154C166.908 25.6537 166.984 25.8226 166.984 26.0223C166.984 26.1913 166.923 26.3295 166.802 26.437C166.268 26.9285 165.643 27.3087 164.927 27.5775C164.211 27.8463 163.449 27.9806 162.641 27.9806Z" fill="white"/>
<path d="M176.38 27.9806C175.176 27.9806 174.086 27.7003 173.111 27.1397C172.135 26.579 171.37 25.8073 170.813 24.8243C170.257 23.8412 169.979 22.7507 169.979 21.5527C169.979 20.3392 170.257 19.241 170.813 18.258C171.37 17.2749 172.135 16.5032 173.111 15.9426C174.086 15.3819 175.176 15.1016 176.38 15.1016C177.568 15.1016 178.65 15.3819 179.626 15.9426C180.601 16.5032 181.367 17.2749 181.923 18.258C182.479 19.241 182.757 20.3392 182.757 21.5527C182.757 22.7507 182.479 23.8412 181.923 24.8243C181.367 25.8073 180.601 26.579 179.626 27.1397C178.65 27.7003 177.568 27.9806 176.38 27.9806ZM176.38 26.6904C177.325 26.6904 178.178 26.4677 178.94 26.0223C179.702 25.5769 180.3 24.9625 180.734 24.1792C181.169 23.3958 181.386 22.5203 181.386 21.5527C181.386 20.5849 181.169 19.7094 180.734 18.9261C180.3 18.1428 179.702 17.5246 178.94 17.0715C178.178 16.6184 177.325 16.3918 176.38 16.3918C175.435 16.3918 174.581 16.6184 173.819 17.0715C173.057 17.5246 172.455 18.1428 172.014 18.9261C171.572 19.7094 171.351 20.5849 171.351 21.5527C171.351 22.5203 171.572 23.3958 172.014 24.1792C172.455 24.9625 173.057 25.5769 173.819 26.0223C174.581 26.4677 175.435 26.6904 176.38 26.6904Z" fill="white"/>
<path d="M199.376 15.0785C200.29 15.0785 201.106 15.3089 201.822 15.7697C202.538 16.2305 203.094 16.8718 203.491 17.6935C203.887 18.5153 204.085 19.4483 204.085 20.4928V27.1512C204.085 27.3509 204.024 27.516 203.902 27.6465C203.78 27.7771 203.613 27.8424 203.399 27.8424C203.201 27.8424 203.037 27.7771 202.908 27.6465C202.778 27.516 202.714 27.3509 202.714 27.1512V20.4928C202.714 19.3101 202.401 18.3424 201.776 17.5898C201.151 16.8372 200.351 16.4609 199.376 16.4609C198.309 16.4609 197.448 16.8142 196.793 17.5207C196.138 18.2272 195.825 19.1642 195.856 20.3315V20.4928V27.1512C195.856 27.3509 195.795 27.516 195.673 27.6465C195.551 27.7771 195.383 27.8424 195.17 27.8424C194.972 27.8424 194.808 27.7771 194.679 27.6465C194.549 27.516 194.484 27.3509 194.484 27.1512V20.4928C194.484 19.3101 194.172 18.3424 193.547 17.5898C192.922 16.8372 192.122 16.4609 191.147 16.4609C190.095 16.4609 189.234 16.7988 188.564 17.4746C187.893 18.1504 187.558 19.0259 187.558 20.1011V27.1512C187.558 27.3509 187.497 27.516 187.375 27.6465C187.253 27.7771 187.085 27.8424 186.872 27.8424C186.674 27.8424 186.51 27.7771 186.381 27.6465C186.251 27.516 186.186 27.3509 186.186 27.1512V15.931C186.186 15.7159 186.251 15.547 186.381 15.4241C186.51 15.3012 186.674 15.2398 186.872 15.2398C187.085 15.2398 187.253 15.3012 187.375 15.4241C187.497 15.547 187.558 15.7159 187.558 15.931V16.8295C187.985 16.2766 188.51 15.8465 189.135 15.5393C189.76 15.2321 190.431 15.0785 191.147 15.0785C192.031 15.0785 192.823 15.2974 193.524 15.7351C194.225 16.1728 194.781 16.7758 195.193 17.5437C195.604 16.7758 196.176 16.1728 196.907 15.7351C197.639 15.2974 198.462 15.0785 199.376 15.0785Z" fill="white"/>
</svg>
