<svg width="146" height="35" viewBox="0 0 146 35" fill="none" xmlns="http://www.w3.org/2000/svg">
<path fill-rule="evenodd" clip-rule="evenodd" d="M5.42072 4.53853C5.12718 3.94268 4.81399 3.36497 4.48352 2.81201C3.88521 1.80859 3.12876 0.753734 2.49906 0C3.55001 1.38489 4.53885 2.89474 5.35011 4.56046C4.88786 4.69753 4.43802 4.88686 4.00864 5.14197C-0.0588184 7.54529 -0.948006 12.3832 1.9091 16.108C2.50482 16.8803 3.19428 17.5406 3.90508 18.1416C4.29627 18.4707 4.69515 18.7805 5.09756 19.077C4.93824 19.3091 4.77337 19.5378 4.60355 19.7607C4.44061 19.9751 4.27404 20.1859 4.10607 20.3932C3.4031 21.2586 2.66504 22.0831 1.99944 22.9552C1.66889 23.3922 1.34898 23.8375 1.07752 24.3092C0.93164 24.5401 0.817003 24.7867 0.690251 25.0277C0.632266 25.15 0.582553 25.2768 0.528189 25.4013C0.471534 25.525 0.42212 25.6516 0.382012 25.7818C0.186047 26.2916 0.0848497 26.8279 0.0301895 27.37C-0.0258004 27.9138 -0.000906985 28.4664 0.0800493 29.0095C0.112107 29.2844 0.183016 29.5498 0.24233 29.8201C0.32432 30.083 0.396634 30.3494 0.504551 30.6046C0.70576 31.1188 0.960376 31.6161 1.27925 32.07C1.90061 32.989 2.75884 33.7571 3.7623 34.256C5.76959 35.2571 8.23233 35.2437 10.2564 34.2414C11.2691 33.7425 12.1615 32.9733 12.8098 32.0514C12.9832 31.8276 13.117 31.5801 13.2664 31.341C13.3903 31.0894 13.5313 30.8445 13.6314 30.5834C13.8581 30.0697 14.0118 29.5296 14.1235 28.9849C14.3147 27.9808 14.3367 26.9231 14.1085 25.8903C13.8887 24.8483 13.4396 23.8764 12.8517 23.0237C12.2672 22.1662 11.5629 21.4222 10.8202 20.768C10.0771 20.1125 9.29783 19.5286 8.52151 18.9841C7.91168 18.552 7.30377 18.1464 6.72541 17.7376C6.79262 17.5864 6.85807 17.4351 6.9176 17.2829C7.72488 15.2442 7.94019 13.0734 7.76646 11.0296C7.91397 12.947 7.71431 14.9381 7.03941 16.8144C6.93186 17.114 6.80747 17.4086 6.67466 17.7016C6.53461 17.6016 6.3936 17.5017 6.2571 17.4004C6.24846 17.3947 6.23981 17.3877 6.23154 17.3807C6.6056 16.5475 6.8769 15.6785 7.05048 14.8003C7.48769 12.5972 7.32312 10.376 6.82837 8.34652C6.68877 7.77475 6.51873 7.2206 6.32639 6.68028C6.34434 6.67731 6.36169 6.67233 6.37964 6.66935L6.52272 6.63992L6.66757 6.63077L6.95586 6.6087C7.14969 6.60305 7.35089 6.62037 7.54826 6.62817C7.943 6.68407 8.3415 6.75446 8.72516 6.9041C9.49469 7.18277 10.2355 7.63092 10.8522 8.23049C11.4713 8.82404 11.9828 9.53986 12.3358 10.3138C12.4201 10.4846 12.4744 10.6735 12.5535 10.8634C12.6122 11.0586 12.6678 11.2621 12.72 11.4714C12.7969 11.8925 12.8652 12.3519 12.847 12.8326C12.8318 13.7908 12.589 14.815 12.1846 15.716C11.7916 16.6274 11.2366 17.3973 10.7409 18.0096C10.2419 18.625 9.77596 19.0591 9.57948 19.4348C10.0962 19.1984 10.5941 18.8569 11.0424 18.4675C11.4866 18.0733 11.8727 17.6301 12.2361 17.2187C12.1428 17.4073 12.0354 17.6125 11.9137 17.8209C11.7791 18.0168 11.6507 18.241 11.4754 18.4246C11.6597 18.2697 11.8281 18.0767 12.0061 17.9006C12.1475 17.7334 12.2864 17.5663 12.3944 17.3959C12.2203 17.6957 12.0459 17.9928 12.0114 18.148C12.4445 17.7327 12.8334 16.9674 12.9975 16.5374C13.0271 16.478 13.0722 16.3564 13.1187 16.2031C13.1652 16.0489 13.2353 15.8725 13.2785 15.6836C13.3869 15.3148 13.4595 14.9336 13.5324 14.7776C13.4791 15.2265 13.3844 15.7436 13.225 16.2247C13.0812 16.7153 12.8877 17.1719 12.745 17.5513C12.8419 17.4173 12.9377 17.285 13.0323 17.1523C13.1208 17.0149 13.2033 16.8767 13.2966 16.745C13.178 17.137 12.7454 17.7979 12.6887 18.022C13.2128 17.3589 13.5536 16.6891 13.9084 15.9006C14.1968 15.2598 14.3962 14.6473 14.4626 13.974C14.4537 14.0747 14.4455 14.1805 14.4372 14.2882C14.4228 14.3951 14.4024 14.5044 14.3849 14.6163C14.3657 14.7266 14.347 14.84 14.328 14.9515C14.3017 15.0633 14.2757 15.1731 14.2507 15.2825C14.2244 15.3919 14.2006 15.499 14.1755 15.604C14.148 15.7063 14.1206 15.8063 14.094 15.9014C14.0483 16.0953 14.0067 16.2684 13.972 16.4129C14.0813 16.2537 14.1583 16.0712 14.2342 15.8865C14.3134 15.705 14.3708 15.5122 14.4239 15.3207C14.4237 15.3722 14.4303 15.4043 14.4449 15.4207C14.497 15.2519 14.6042 15.0412 14.6385 14.8584C14.6503 14.8595 14.6645 14.8546 14.6762 14.8516C14.6729 14.8493 14.6692 14.8471 14.6655 14.8459L14.7314 14.7113C16.3323 9.24097 11.3051 2.87816 5.42072 4.53853ZM13.0557 30.2251C13.4203 29.4374 13.6442 28.5776 13.714 27.6937C13.7842 26.812 13.7095 25.8964 13.4374 25.0224C14.1824 27.0284 13.9479 29.3662 12.8689 31.2504C12.6032 31.7257 12.268 32.1592 11.9035 32.5638C11.5305 32.9624 11.1015 33.3071 10.6457 33.6054C10.1836 33.8959 9.68445 34.1221 9.17138 34.3C8.65447 34.4695 8.11784 34.5735 7.57833 34.6296C6.4962 34.7239 5.39096 34.5818 4.38292 34.1847C3.37458 33.7903 2.47564 33.1345 1.80391 32.2899C0.445755 30.6168 -0.094865 28.2784 0.473158 26.2423C0.767142 25.2205 1.29004 24.2728 1.92941 23.3914C2.55926 22.505 3.29385 21.6735 3.99993 20.803C4.22906 20.5187 4.4573 20.2326 4.68008 19.9377C4.86858 19.6883 5.05339 19.4339 5.22934 19.1725L5.67999 19.4956C5.44037 19.8555 5.191 20.1995 4.9358 20.5334C4.62232 20.9461 4.30041 21.3423 3.98449 21.7287C2.83345 23.1382 1.72835 24.475 1.20539 25.9591C1.15235 26.146 1.07066 26.3308 1.03682 26.5159L0.970199 26.7942L0.926398 27.0776C0.864499 27.4563 0.857332 27.8455 0.872917 28.2342C0.922998 29.0115 1.10161 29.7942 1.42624 30.5153C1.75339 31.2324 2.19592 31.904 2.75936 32.4496C3.32266 32.9916 3.98951 33.4272 4.73725 33.7065C5.48521 33.9847 6.29411 34.131 7.10965 34.1275C7.92365 34.1168 8.74318 33.967 9.51529 33.6722C10.2839 33.368 10.9957 32.9128 11.6009 32.3225C12.2086 31.734 12.6922 31.0102 13.0557 30.2251ZM8.24984 21.2952C9.62195 22.3067 10.8582 23.4433 11.5899 24.7958C11.6733 24.9678 11.7626 25.1358 11.8353 25.3104C11.8974 25.4874 11.9842 25.6601 12.0263 25.8363L12.1033 26.0993C12.1254 26.1887 12.1391 26.2806 12.1577 26.37C12.2007 26.5475 12.2131 26.7329 12.236 26.9154C12.3068 27.6489 12.2031 28.4022 11.9853 29.1073C11.725 29.9261 11.2866 30.7067 10.7081 31.3289C10.4139 31.6349 10.1 31.9121 9.7459 32.1331C9.38928 32.3542 9.00599 32.5374 8.60121 32.6778C7.78544 32.9425 6.89596 33.0352 6.05057 32.9231C5.62747 32.8764 5.21856 32.7679 4.8352 32.6254C4.63886 32.5615 4.4621 32.466 4.27714 32.3851C4.1074 32.2822 3.92843 32.1953 3.77132 32.0753C3.52638 31.92 3.28388 31.692 3.02978 31.4343C2.79076 31.1603 2.54995 30.8435 2.3435 30.4806C2.14155 30.1124 1.96886 29.7082 1.84055 29.2809C1.71483 28.8539 1.64806 28.4054 1.62686 27.9662C1.60396 27.5248 1.63757 27.0908 1.72732 26.6899C1.7418 26.5892 1.76949 26.4857 1.80148 26.3829C1.8325 26.2792 1.85407 26.1771 1.88775 26.0759C1.96516 25.8741 2.02137 25.6728 2.11363 25.4782C2.44034 24.6989 2.86676 23.9842 3.17411 23.4074C2.68328 24.1161 2.2443 24.8157 1.92675 25.5168C1.84255 25.6924 1.78545 25.8695 1.70959 26.0437C1.65862 26.2221 1.59022 26.3997 1.54901 26.5741C1.50979 26.7475 1.46222 26.9198 1.44272 27.0996C1.40837 27.2752 1.40039 27.4575 1.38672 27.6398C1.34543 28.3686 1.46258 29.1228 1.69216 29.8361C1.93827 30.5445 2.29866 31.2154 2.76941 31.7725C1.65101 30.6295 1.0078 28.9088 1.13617 27.274C1.2113 26.4713 1.45793 25.6638 1.88421 24.8796C2.3011 24.0947 2.8514 23.3294 3.46012 22.5557C3.94822 21.9295 4.46949 21.2991 4.97414 20.6247C5.09675 20.4626 5.21796 20.2973 5.33659 20.1293C5.4728 19.936 5.60775 19.7379 5.73871 19.5372C5.86052 19.6221 5.98262 19.7081 6.10442 19.7917C6.83953 20.2951 7.56237 20.7845 8.24984 21.2952ZM7.15655 11.1186C7.28774 13.1692 7.0041 15.3333 6.11454 17.2925C5.45256 16.797 4.82205 16.2803 4.25949 15.7287C1.82342 13.3473 1.01621 10.1046 4.18171 7.64794C4.80779 7.17459 5.52199 6.845 6.2441 6.6976C6.73072 8.09401 7.06016 9.57866 7.15655 11.1186Z" fill="url(#paint0_linear)"/>
<path d="M26.1012 24.5975C26.1708 24.5975 26.2254 24.6175 26.2653 24.6575C26.305 24.6976 26.3249 24.7526 26.3249 24.8226V28.4318V28.4468C26.3199 28.832 26.2254 29.1821 26.0415 29.4972C25.8577 29.8124 25.6079 30.0588 25.2922 30.2363C24.9765 30.4139 24.6274 30.5027 24.2446 30.5027C23.8519 30.5027 23.4965 30.4115 23.1784 30.2288C22.8601 30.0463 22.6103 29.7949 22.4289 29.4747C22.2475 29.1546 22.1568 28.797 22.1568 28.4017C22.1568 28.0116 22.2475 27.6564 22.4289 27.3362C22.6103 27.0161 22.8601 26.7648 23.1784 26.5821C23.4965 26.3996 23.8519 26.3083 24.2446 26.3083C24.5975 26.3083 24.9169 26.3846 25.2027 26.5372C25.4886 26.6897 25.7135 26.8986 25.8775 27.1637V24.8226C25.8775 24.7526 25.8987 24.6976 25.9409 24.6575C25.9832 24.6175 26.0366 24.5975 26.1012 24.5975ZM24.2446 30.0825C24.5528 30.0825 24.8312 30.0087 25.0797 29.8612C25.3282 29.7136 25.5234 29.5123 25.665 29.2572C25.8067 29.002 25.8775 28.7169 25.8775 28.4017C25.8775 28.0866 25.8067 27.8015 25.665 27.5464C25.5234 27.2913 25.3282 27.0912 25.0797 26.9461C24.8312 26.8011 24.5528 26.7285 24.2446 26.7285C23.9364 26.7285 23.658 26.8011 23.4095 26.9461C23.1609 27.0912 22.9646 27.2913 22.8204 27.5464C22.6762 27.8015 22.6041 28.0866 22.6041 28.4017C22.6041 28.7169 22.6762 29.002 22.8204 29.2572C22.9646 29.5123 23.1609 29.7136 23.4095 29.8612C23.658 30.0087 23.9364 30.0825 24.2446 30.0825Z" fill="#7F43D6"/>
<path d="M29.3596 26.3158C29.7225 26.3158 30.0469 26.4021 30.3327 26.5746C30.6185 26.7472 30.8409 26.9861 31 27.2913C31.1591 27.5964 31.2386 27.944 31.2386 28.3342C31.2386 28.3993 31.2187 28.4505 31.179 28.488C31.1392 28.5255 31.087 28.5443 31.0224 28.5443H27.8982C27.9131 28.8394 27.9902 29.1033 28.1293 29.3359C28.2686 29.5685 28.4549 29.7499 28.6886 29.8799C28.9222 30.01 29.1832 30.075 29.4715 30.075C29.6654 30.075 29.8604 30.0413 30.0568 29.9737C30.2532 29.9062 30.4085 29.8174 30.5229 29.7074C30.5725 29.6673 30.6247 29.6473 30.6794 29.6473C30.7341 29.6473 30.7788 29.6623 30.8136 29.6923C30.8683 29.7373 30.8957 29.7899 30.8957 29.8499C30.8957 29.8999 30.8733 29.9475 30.8285 29.9924C30.6695 30.1375 30.4619 30.2576 30.2059 30.3526C29.95 30.4476 29.7051 30.4952 29.4715 30.4952C29.0788 30.4952 28.7296 30.4064 28.4239 30.2288C28.1182 30.0512 27.8783 29.8036 27.7044 29.486C27.5304 29.1683 27.4434 28.8094 27.4434 28.4092C27.4434 28.004 27.5242 27.6426 27.6857 27.325C27.8472 27.0074 28.0734 26.7597 28.3642 26.5821C28.655 26.4045 28.9868 26.3158 29.3596 26.3158ZM29.3596 26.736C28.9719 26.736 28.6451 26.866 28.3791 27.1262C28.1132 27.3862 27.9554 27.7289 27.9057 28.1541H30.8061C30.7713 27.7289 30.6222 27.3862 30.3588 27.1262C30.0953 26.866 29.7623 26.736 29.3596 26.736Z" fill="#7F43D6"/>
<path d="M33.8632 30.5027C33.4805 30.5027 33.135 30.4114 32.8268 30.2288C32.5186 30.0462 32.2763 29.7948 32.0998 29.4747C31.9233 29.1545 31.8351 28.7994 31.8351 28.4092C31.8351 28.0141 31.9171 27.6576 32.0812 27.34C32.2452 27.0223 32.4739 26.7723 32.7672 26.5896C33.0604 26.4071 33.3885 26.3158 33.7514 26.3158C34.0695 26.3158 34.3603 26.3783 34.6238 26.5034C34.8872 26.6284 35.1159 26.8135 35.3098 27.0586C35.3446 27.1086 35.3619 27.1511 35.3619 27.1861C35.3619 27.2562 35.3271 27.3112 35.2575 27.3512C35.2228 27.3813 35.1829 27.3963 35.1382 27.3963C35.0687 27.3963 35.0115 27.3663 34.9667 27.3063C34.6486 26.9261 34.2435 26.736 33.7514 26.736C33.4631 26.736 33.207 26.8073 32.9834 26.9498C32.7597 27.0924 32.5869 27.2913 32.4651 27.5464C32.3434 27.8015 32.2825 28.0891 32.2825 28.4092C32.2825 28.7244 32.3496 29.0095 32.4838 29.2646C32.618 29.5197 32.8044 29.7198 33.0431 29.8649C33.2816 30.01 33.555 30.0825 33.8632 30.0825C34.3006 30.0825 34.6511 29.9599 34.9146 29.7149C34.9593 29.6698 35.0115 29.6473 35.0711 29.6473C35.1258 29.6473 35.1705 29.6648 35.2053 29.6999C35.255 29.7448 35.2799 29.7999 35.2799 29.8649C35.2799 29.9199 35.2601 29.9649 35.2202 29.9999C35.0463 30.16 34.8425 30.2838 34.6089 30.3714C34.3752 30.4589 34.1267 30.5027 33.8632 30.5027Z" fill="#7F43D6"/>
<path d="M38.3443 30.5027C37.9516 30.5027 37.5961 30.4115 37.278 30.2288C36.9599 30.0463 36.7101 29.7949 36.5286 29.4747C36.3472 29.1546 36.2565 28.7994 36.2565 28.4092C36.2565 28.0141 36.3472 27.6564 36.5286 27.3363C36.7101 27.0161 36.9599 26.7648 37.278 26.5821C37.5961 26.3996 37.9516 26.3083 38.3443 26.3083C38.732 26.3083 39.0849 26.3996 39.403 26.5821C39.7212 26.7648 39.971 27.0161 40.1524 27.3363C40.3338 27.6564 40.4245 28.0141 40.4245 28.4092C40.4245 28.7994 40.3338 29.1546 40.1524 29.4747C39.971 29.7949 39.7212 30.0463 39.403 30.2288C39.0849 30.4115 38.732 30.5027 38.3443 30.5027ZM38.3443 30.0825C38.6524 30.0825 38.9308 30.01 39.1794 29.8649C39.4279 29.7199 39.623 29.5198 39.7647 29.2647C39.9064 29.0096 39.9772 28.7244 39.9772 28.4092C39.9772 28.0941 39.9064 27.809 39.7647 27.5539C39.623 27.2988 39.4279 27.0974 39.1794 26.9499C38.9308 26.8022 38.6524 26.7285 38.3443 26.7285C38.0361 26.7285 37.7577 26.8022 37.5091 26.9499C37.2606 27.0974 37.0642 27.2988 36.9201 27.5539C36.776 27.809 36.7039 28.0941 36.7039 28.4092C36.7039 28.7244 36.776 29.0096 36.9201 29.2647C37.0642 29.5198 37.2606 29.7199 37.5091 29.8649C37.7577 30.01 38.0361 30.0825 38.3443 30.0825Z" fill="#7F43D6"/>
<path d="M43.273 26.3083C43.6508 26.3083 43.8397 26.3908 43.8397 26.5559C43.8397 26.581 43.8372 26.601 43.8322 26.616C43.8173 26.671 43.7937 26.7097 43.7614 26.7322C43.7291 26.7547 43.6856 26.766 43.6309 26.766C43.5862 26.766 43.5278 26.761 43.4557 26.751C43.3836 26.741 43.3227 26.736 43.273 26.736C43.0245 26.736 42.8032 26.7885 42.6093 26.8936C42.4154 26.9986 42.2639 27.1437 42.1545 27.3287C42.0452 27.5138 41.9905 27.7214 41.9905 27.9516V30.2326C41.9905 30.2977 41.9706 30.3514 41.9308 30.3939C41.8911 30.4364 41.8363 30.4577 41.7668 30.4577C41.7021 30.4577 41.6487 30.4364 41.6065 30.3939C41.5642 30.3514 41.5431 30.2977 41.5431 30.2326V26.5784C41.5431 26.5084 41.5642 26.4534 41.6065 26.4133C41.6487 26.3733 41.7021 26.3534 41.7668 26.3534C41.8363 26.3534 41.8911 26.3733 41.9308 26.4133C41.9706 26.4534 41.9905 26.5084 41.9905 26.5784V27.0436C42.1346 26.8135 42.3185 26.6334 42.5422 26.5034C42.7659 26.3733 43.0095 26.3083 43.273 26.3083Z" fill="#7F43D6"/>
<path d="M46.2258 26.3083C46.6136 26.3083 46.9665 26.3996 47.2846 26.5821C47.6028 26.7648 47.8526 27.0161 48.034 27.3363C48.2154 27.6564 48.3061 28.0141 48.3061 28.4092V30.2326C48.3061 30.2977 48.2862 30.3514 48.2465 30.3939C48.2067 30.4364 48.152 30.4577 48.0824 30.4577C48.0178 30.4577 47.9644 30.4364 47.9222 30.3939C47.8799 30.3514 47.8588 30.2977 47.8588 30.2326V29.6473C47.6947 29.9125 47.4698 30.1213 47.184 30.2739C46.8982 30.4264 46.5788 30.5027 46.2258 30.5027C45.8332 30.5027 45.4777 30.4115 45.1596 30.2288C44.8415 30.0463 44.5917 29.7949 44.4102 29.4747C44.2288 29.1546 44.1381 28.7994 44.1381 28.4092C44.1381 28.0141 44.2288 27.6564 44.4102 27.3363C44.5917 27.0161 44.8415 26.7648 45.1596 26.5821C45.4777 26.3996 45.8332 26.3083 46.2258 26.3083ZM46.2258 30.0825C46.534 30.0825 46.8124 30.01 47.061 29.8649C47.3094 29.7199 47.5046 29.5198 47.6463 29.2647C47.788 29.0096 47.8588 28.7244 47.8588 28.4092C47.8588 28.0941 47.788 27.809 47.6463 27.5539C47.5046 27.2988 47.3094 27.0974 47.061 26.9499C46.8124 26.8022 46.534 26.7285 46.2258 26.7285C45.9177 26.7285 45.6393 26.8022 45.3907 26.9499C45.1422 27.0974 44.9458 27.2988 44.8017 27.5539C44.6575 27.809 44.5855 28.0941 44.5855 28.4092C44.5855 28.7244 44.6575 29.0096 44.8017 29.2647C44.9458 29.5198 45.1422 29.7199 45.3907 29.8649C45.6393 30.01 45.9177 30.0825 46.2258 30.0825Z" fill="#7F43D6"/>
<path d="M51.2661 29.9998C51.3357 29.9998 51.3916 30.0211 51.4339 30.0636C51.4761 30.1061 51.4973 30.1625 51.4973 30.2325C51.4973 30.2975 51.4761 30.3513 51.4339 30.3938C51.3916 30.4363 51.3357 30.4576 51.2661 30.4576H51.0946C50.8213 30.4576 50.5777 30.3951 50.364 30.27C50.1502 30.1449 49.9837 29.9736 49.8644 29.756C49.7451 29.5384 49.6854 29.292 49.6854 29.0169V26.9084H49.1038C49.0442 26.9084 48.9957 26.8897 48.9584 26.8522C48.9211 26.8147 48.9025 26.7659 48.9025 26.7059C48.9025 26.6458 48.9211 26.597 48.9584 26.5596C48.9957 26.522 49.0442 26.5033 49.1038 26.5033H49.6854V25.2802C49.6854 25.2101 49.7065 25.1539 49.7488 25.1114C49.791 25.0688 49.8445 25.0476 49.9091 25.0476C49.9787 25.0476 50.0347 25.0688 50.0769 25.1114C50.1192 25.1539 50.1403 25.2101 50.1403 25.2802V26.5033H51.1245C51.1841 26.5033 51.2326 26.522 51.2699 26.5596C51.3071 26.597 51.3258 26.6458 51.3258 26.7059C51.3258 26.7659 51.3071 26.8147 51.2699 26.8522C51.2326 26.8897 51.1841 26.9084 51.1245 26.9084H50.1403V29.0169C50.1403 29.3071 50.2297 29.5434 50.4087 29.726C50.5876 29.9086 50.8187 29.9998 51.1021 29.9998H51.2661Z" fill="#7F43D6"/>
<path d="M52.802 30.4577C52.7373 30.4577 52.6839 30.4365 52.6417 30.3939C52.5994 30.3514 52.5783 30.2977 52.5783 30.2326V26.5784C52.5783 26.5084 52.5994 26.4534 52.6417 26.4134C52.6839 26.3734 52.7373 26.3534 52.802 26.3534C52.8715 26.3534 52.9263 26.3734 52.966 26.4134C53.0057 26.4534 53.0256 26.5084 53.0256 26.5784V30.2326C53.0256 30.2977 53.0057 30.3514 52.966 30.3939C52.9263 30.4365 52.8715 30.4577 52.802 30.4577ZM52.7945 25.4904C52.6951 25.4904 52.6131 25.4567 52.5484 25.3891C52.4838 25.3216 52.4515 25.2379 52.4515 25.1378C52.4515 25.0277 52.4863 24.9427 52.5559 24.8827C52.6255 24.8226 52.7076 24.7926 52.802 24.7926C52.8964 24.7926 52.9772 24.8226 53.0443 24.8827C53.1114 24.9427 53.145 25.0277 53.145 25.1378C53.145 25.2379 53.1114 25.3216 53.0443 25.3891C52.9772 25.4567 52.8939 25.4904 52.7945 25.4904Z" fill="#7F43D6"/>
<path d="M56.381 30.5027C55.9883 30.5027 55.6329 30.4115 55.3148 30.2288C54.9966 30.0463 54.7468 29.7949 54.5654 29.4747C54.384 29.1546 54.2933 28.7994 54.2933 28.4092C54.2933 28.0141 54.384 27.6564 54.5654 27.3363C54.7468 27.0161 54.9966 26.7648 55.3148 26.5821C55.6329 26.3996 55.9883 26.3083 56.381 26.3083C56.7687 26.3083 57.1216 26.3996 57.4398 26.5821C57.7579 26.7648 58.0077 27.0161 58.1891 27.3363C58.3706 27.6564 58.4613 28.0141 58.4613 28.4092C58.4613 28.7994 58.3706 29.1546 58.1891 29.4747C58.0077 29.7949 57.7579 30.0463 57.4398 30.2288C57.1216 30.4115 56.7687 30.5027 56.381 30.5027ZM56.381 30.0825C56.6892 30.0825 56.9676 30.01 57.2161 29.8649C57.4646 29.7199 57.6597 29.5198 57.8014 29.2647C57.9431 29.0096 58.0139 28.7244 58.0139 28.4092C58.0139 28.0941 57.9431 27.809 57.8014 27.5539C57.6597 27.2988 57.4646 27.0974 57.2161 26.9499C56.9676 26.8022 56.6892 26.7285 56.381 26.7285C56.0728 26.7285 55.7944 26.8022 55.5459 26.9499C55.2973 27.0974 55.101 27.2988 54.9569 27.5539C54.8127 27.809 54.7406 28.0941 54.7406 28.4092C54.7406 28.7244 54.8127 29.0096 54.9569 29.2647C55.101 29.5198 55.2973 29.7199 55.5459 29.8649C55.7944 30.01 56.0728 30.0825 56.381 30.0825Z" fill="#7F43D6"/>
<path d="M61.4438 26.3006C61.8067 26.3006 62.131 26.3756 62.4168 26.5257C62.7027 26.6758 62.9264 26.8946 63.0879 27.1823C63.2495 27.4699 63.3303 27.8138 63.3303 28.214V30.2325C63.3303 30.2975 63.3092 30.3513 63.2669 30.3938C63.2247 30.4363 63.1712 30.4576 63.1065 30.4576C63.042 30.4576 62.9885 30.4363 62.9463 30.3938C62.904 30.3513 62.8828 30.2975 62.8828 30.2325V28.214C62.8828 27.7388 62.7499 27.3762 62.4839 27.126C62.218 26.8759 61.8712 26.7509 61.4438 26.7509C61.1803 26.7509 60.9405 26.8021 60.7243 26.9047C60.508 27.0073 60.3378 27.1498 60.2135 27.3324C60.0892 27.5149 60.0271 27.7163 60.0271 27.9364V30.2325C60.0271 30.2975 60.0072 30.3513 59.9674 30.3938C59.9277 30.4363 59.873 30.4576 59.8034 30.4576C59.7387 30.4576 59.6853 30.4363 59.6431 30.3938C59.6008 30.3513 59.5797 30.2975 59.5797 30.2325V26.5783C59.5797 26.5083 59.6008 26.4532 59.6431 26.4132C59.6853 26.3732 59.7387 26.3532 59.8034 26.3532C59.873 26.3532 59.9277 26.3732 59.9674 26.4132C60.0072 26.4532 60.0271 26.5083 60.0271 26.5783V26.9684C60.1961 26.7584 60.4023 26.5946 60.646 26.477C60.8895 26.3594 61.1555 26.3006 61.4438 26.3006Z" fill="#7F43D6"/>
<path d="M71.0851 26.3006C71.3832 26.3006 71.6492 26.3756 71.8829 26.5257C72.1165 26.6758 72.2979 26.8847 72.4272 27.1523C72.5564 27.4199 72.621 27.7238 72.621 28.064V30.2325C72.621 30.2975 72.6011 30.3513 72.5614 30.3938C72.5216 30.4363 72.4669 30.4576 72.3973 30.4576C72.3327 30.4576 72.2793 30.4363 72.237 30.3938C72.1947 30.3513 72.1736 30.2975 72.1736 30.2325V28.064C72.1736 27.6788 72.0717 27.3636 71.8679 27.1185C71.6642 26.8734 71.4032 26.7509 71.0851 26.7509C70.7371 26.7509 70.4562 26.8659 70.2425 27.096C70.0287 27.3261 69.9268 27.6313 69.9367 28.0114V28.064V30.2325C69.9367 30.2975 69.9169 30.3513 69.8771 30.3938C69.8373 30.4363 69.7827 30.4576 69.7131 30.4576C69.6484 30.4576 69.595 30.4363 69.5528 30.3938C69.5105 30.3513 69.4894 30.2975 69.4894 30.2325V28.064C69.4894 27.6788 69.3875 27.3636 69.1837 27.1185C68.9799 26.8734 68.7189 26.7509 68.4008 26.7509C68.0578 26.7509 67.7769 26.8609 67.5582 27.081C67.3395 27.3011 67.2302 27.5862 67.2302 27.9364V30.2325C67.2302 30.2975 67.2102 30.3513 67.1705 30.3938C67.1308 30.4363 67.076 30.4576 67.0064 30.4576C66.9418 30.4576 66.8884 30.4363 66.8462 30.3938C66.8039 30.3513 66.7828 30.2975 66.7828 30.2325V26.5783C66.7828 26.5083 66.8039 26.4532 66.8462 26.4132C66.8884 26.3732 66.9418 26.3532 67.0064 26.3532C67.076 26.3532 67.1308 26.3732 67.1705 26.4132C67.2102 26.4532 67.2302 26.5083 67.2302 26.5783V26.8709C67.3693 26.6908 67.5409 26.5508 67.7446 26.4507C67.9484 26.3507 68.1672 26.3006 68.4008 26.3006C68.6891 26.3006 68.9475 26.3719 69.1762 26.5145C69.4049 26.6571 69.5863 26.8534 69.7205 27.1035C69.8548 26.8534 70.0411 26.6571 70.2798 26.5145C70.5184 26.3719 70.7868 26.3006 71.0851 26.3006Z" fill="#7F43D6"/>
<path d="M75.7525 26.3083C76.1402 26.3083 76.4932 26.3996 76.8113 26.5821C77.1294 26.7648 77.3793 27.0161 77.5607 27.3363C77.7421 27.6564 77.8328 28.0141 77.8328 28.4092V30.2326C77.8328 30.2977 77.8129 30.3514 77.7732 30.3939C77.7334 30.4364 77.6787 30.4577 77.6091 30.4577C77.5445 30.4577 77.4911 30.4364 77.4488 30.3939C77.4066 30.3514 77.3855 30.2977 77.3855 30.2326V29.6473C77.2214 29.9125 76.9965 30.1213 76.7106 30.2739C76.4248 30.4264 76.1055 30.5027 75.7525 30.5027C75.3599 30.5027 75.0044 30.4115 74.6863 30.2288C74.3681 30.0463 74.1183 29.7949 73.9369 29.4747C73.7555 29.1546 73.6648 28.7994 73.6648 28.4092C73.6648 28.0141 73.7555 27.6564 73.9369 27.3363C74.1183 27.0161 74.3681 26.7648 74.6863 26.5821C75.0044 26.3996 75.3599 26.3083 75.7525 26.3083ZM75.7525 30.0825C76.0607 30.0825 76.3391 30.01 76.5876 29.8649C76.8361 29.7199 77.0313 29.5198 77.1729 29.2647C77.3146 29.0096 77.3855 28.7244 77.3855 28.4092C77.3855 28.0941 77.3146 27.809 77.1729 27.5539C77.0313 27.2988 76.8361 27.0974 76.5876 26.9499C76.3391 26.8022 76.0607 26.7285 75.7525 26.7285C75.4444 26.7285 75.166 26.8022 74.9174 26.9499C74.6688 27.0974 74.4725 27.2988 74.3284 27.5539C74.1842 27.809 74.1121 28.0941 74.1121 28.4092C74.1121 28.7244 74.1842 29.0096 74.3284 29.2647C74.4725 29.5198 74.6688 29.7199 74.9174 29.8649C75.166 30.01 75.4444 30.0825 75.7525 30.0825Z" fill="#7F43D6"/>
<path d="M80.8154 26.3006C81.1783 26.3006 81.5026 26.3756 81.7884 26.5257C82.0742 26.6758 82.2979 26.8946 82.4594 27.1823C82.621 27.4699 82.7018 27.8138 82.7018 28.214V30.2325C82.7018 30.2975 82.6807 30.3513 82.6384 30.3938C82.5962 30.4363 82.5427 30.4576 82.4781 30.4576C82.4135 30.4576 82.36 30.4363 82.3178 30.3938C82.2755 30.3513 82.2544 30.2975 82.2544 30.2325V28.214C82.2544 27.7388 82.1214 27.3762 81.8555 27.126C81.5895 26.8759 81.2428 26.7509 80.8154 26.7509C80.5519 26.7509 80.312 26.8021 80.0958 26.9047C79.8796 27.0073 79.7094 27.1498 79.5851 27.3324C79.4608 27.5149 79.3987 27.7163 79.3987 27.9364V30.2325C79.3987 30.2975 79.3788 30.3513 79.339 30.3938C79.2993 30.4363 79.2445 30.4576 79.175 30.4576C79.1103 30.4576 79.0569 30.4363 79.0147 30.3938C78.9724 30.3513 78.9513 30.2975 78.9513 30.2325V26.5783C78.9513 26.5083 78.9724 26.4532 79.0147 26.4132C79.0569 26.3732 79.1103 26.3532 79.175 26.3532C79.2445 26.3532 79.2993 26.3732 79.339 26.4132C79.3788 26.4532 79.3987 26.5083 79.3987 26.5783V26.9684C79.5677 26.7584 79.7739 26.5946 80.0175 26.477C80.2611 26.3594 80.5271 26.3006 80.8154 26.3006Z" fill="#7F43D6"/>
<path d="M85.8334 26.3083C86.2212 26.3083 86.5741 26.3996 86.8922 26.5821C87.2104 26.7648 87.4602 27.0161 87.6416 27.3363C87.823 27.6564 87.9137 28.0141 87.9137 28.4092V30.2326C87.9137 30.2977 87.8938 30.3514 87.8541 30.3939C87.8143 30.4364 87.7596 30.4577 87.69 30.4577C87.6254 30.4577 87.572 30.4364 87.5298 30.3939C87.4875 30.3514 87.4664 30.2977 87.4664 30.2326V29.6473C87.3023 29.9125 87.0774 30.1213 86.7916 30.2739C86.5058 30.4264 86.1864 30.5027 85.8334 30.5027C85.4408 30.5027 85.0853 30.4115 84.7672 30.2288C84.4491 30.0463 84.1992 29.7949 84.0178 29.4747C83.8364 29.1546 83.7457 28.7994 83.7457 28.4092C83.7457 28.0141 83.8364 27.6564 84.0178 27.3363C84.1992 27.0161 84.4491 26.7648 84.7672 26.5821C85.0853 26.3996 85.4408 26.3083 85.8334 26.3083ZM85.8334 30.0825C86.1416 30.0825 86.42 30.01 86.6686 29.8649C86.917 29.7199 87.1122 29.5198 87.2539 29.2647C87.3956 29.0096 87.4664 28.7244 87.4664 28.4092C87.4664 28.0941 87.3956 27.809 87.2539 27.5539C87.1122 27.2988 86.917 27.0974 86.6686 26.9499C86.42 26.8022 86.1416 26.7285 85.8334 26.7285C85.5253 26.7285 85.2469 26.8022 84.9983 26.9499C84.7498 27.0974 84.5534 27.2988 84.4093 27.5539C84.2651 27.809 84.193 28.0941 84.193 28.4092C84.193 28.7244 84.2651 29.0096 84.4093 29.2647C84.5534 29.5198 84.7498 29.7199 84.9983 29.8649C85.2469 30.01 85.5253 30.0825 85.8334 30.0825Z" fill="#7F43D6"/>
<path d="M90.8962 26.3083C91.2988 26.3083 91.658 26.3983 91.9736 26.5784C92.2893 26.7585 92.5353 27.0074 92.7118 27.325C92.8883 27.6427 92.9765 28.0041 92.9765 28.4092V29.8799C92.9765 30.2801 92.887 30.6441 92.708 30.9717C92.5291 31.2994 92.2831 31.5569 91.9699 31.7446C91.6567 31.9321 91.3088 32.0259 90.926 32.0259C90.5333 32.0259 90.1891 31.9522 89.8933 31.8045C89.5976 31.657 89.3503 31.4557 89.1514 31.2005C89.1117 31.1505 89.0918 31.1005 89.0918 31.0505C89.0918 30.9904 89.1166 30.9429 89.1664 30.9079C89.2061 30.8779 89.2508 30.8629 89.3006 30.8629C89.3801 30.8629 89.4447 30.8954 89.4944 30.9604C89.6584 31.1605 89.861 31.3181 90.1021 31.4332C90.3432 31.5482 90.6178 31.6057 90.926 31.6057C91.2293 31.6057 91.5026 31.5307 91.7462 31.3806C91.9898 31.2305 92.1811 31.0242 92.3203 30.7616C92.4595 30.499 92.5291 30.2051 92.5291 29.8799V29.5498C92.3849 29.8449 92.17 30.0776 91.8841 30.2476C91.5984 30.4177 91.269 30.5027 90.8962 30.5027C90.4936 30.5027 90.1344 30.4139 89.8188 30.2363C89.5031 30.0588 89.2558 29.8112 89.0769 29.4935C88.8979 29.1758 88.8085 28.8144 88.8085 28.4092C88.8085 28.0091 88.9004 27.6489 89.0844 27.3287C89.2683 27.0086 89.5193 26.7585 89.8374 26.5784C90.1555 26.3983 90.5085 26.3083 90.8962 26.3083ZM90.8962 30.0825C91.2094 30.0825 91.4902 30.0113 91.7388 29.8687C91.9873 29.7261 92.1811 29.5285 92.3203 29.2759C92.4595 29.0233 92.5291 28.7344 92.5291 28.4092C92.5291 28.0841 92.4595 27.794 92.3203 27.5389C92.1811 27.2838 91.9873 27.0849 91.7388 26.9424C91.4902 26.7998 91.2094 26.7285 90.8962 26.7285C90.5781 26.7285 90.2947 26.7998 90.0461 26.9424C89.7977 27.0849 89.6038 27.2838 89.4646 27.5389C89.3254 27.794 89.2558 28.0841 89.2558 28.4092C89.2558 28.7344 89.3254 29.0233 89.4646 29.2759C89.6038 29.5285 89.7977 29.7261 90.0461 29.8687C90.2947 30.0113 90.5781 30.0825 90.8962 30.0825Z" fill="#7F43D6"/>
<path d="M95.7876 26.3158C96.1505 26.3158 96.4748 26.4021 96.7606 26.5746C97.0464 26.7472 97.2688 26.9861 97.428 27.2913C97.587 27.5964 97.6665 27.944 97.6665 28.3342C97.6665 28.3993 97.6467 28.4505 97.6069 28.488C97.5671 28.5255 97.515 28.5443 97.4503 28.5443H94.3261C94.341 28.8394 94.4181 29.1033 94.5572 29.3359C94.6965 29.5685 94.8828 29.7499 95.1165 29.8799C95.3501 30.01 95.6111 30.075 95.8994 30.075C96.0933 30.075 96.2884 30.0413 96.4848 29.9737C96.6811 29.9062 96.8364 29.8174 96.9508 29.7074C97.0004 29.6673 97.0526 29.6473 97.1073 29.6473C97.162 29.6473 97.2067 29.6623 97.2415 29.6923C97.2963 29.7373 97.3236 29.7899 97.3236 29.8499C97.3236 29.8999 97.3012 29.9475 97.2564 29.9924C97.0974 30.1375 96.8898 30.2576 96.6338 30.3526C96.3779 30.4476 96.133 30.4952 95.8994 30.4952C95.5067 30.4952 95.1575 30.4064 94.8518 30.2288C94.5461 30.0512 94.3063 29.8036 94.1323 29.486C93.9583 29.1683 93.8713 28.8094 93.8713 28.4092C93.8713 28.004 93.9521 27.6426 94.1136 27.325C94.2752 27.0074 94.5013 26.7597 94.7921 26.5821C95.083 26.4045 95.4148 26.3158 95.7876 26.3158ZM95.7876 26.736C95.3998 26.736 95.073 26.866 94.8071 27.1262C94.5412 27.3862 94.3833 27.7289 94.3336 28.1541H97.234C97.1993 27.7289 97.0501 27.3862 96.7867 27.1262C96.5232 26.866 96.1902 26.736 95.7876 26.736Z" fill="#7F43D6"/>
<path d="M102.938 26.3006C103.236 26.3006 103.502 26.3756 103.736 26.5257C103.97 26.6758 104.151 26.8847 104.28 27.1523C104.409 27.4199 104.474 27.7238 104.474 28.064V30.2325C104.474 30.2975 104.454 30.3513 104.414 30.3938C104.375 30.4363 104.32 30.4576 104.25 30.4576C104.186 30.4576 104.132 30.4363 104.09 30.3938C104.048 30.3513 104.027 30.2975 104.027 30.2325V28.064C104.027 27.6788 103.925 27.3636 103.721 27.1185C103.517 26.8734 103.256 26.7509 102.938 26.7509C102.59 26.7509 102.309 26.8659 102.095 27.096C101.882 27.3261 101.78 27.6313 101.79 28.0114V28.064V30.2325C101.79 30.2975 101.77 30.3513 101.73 30.3938C101.69 30.4363 101.636 30.4576 101.566 30.4576C101.501 30.4576 101.448 30.4363 101.406 30.3938C101.364 30.3513 101.342 30.2975 101.342 30.2325V28.064C101.342 27.6788 101.24 27.3636 101.037 27.1185C100.833 26.8734 100.572 26.7509 100.254 26.7509C99.9107 26.7509 99.6299 26.8609 99.4112 27.081C99.1925 27.3011 99.0831 27.5862 99.0831 27.9364V30.2325C99.0831 30.2975 99.0632 30.3513 99.0234 30.3938C98.9837 30.4363 98.929 30.4576 98.8594 30.4576C98.7948 30.4576 98.7414 30.4363 98.6991 30.3938C98.6569 30.3513 98.6357 30.2975 98.6357 30.2325V26.5783C98.6357 26.5083 98.6569 26.4532 98.6991 26.4132C98.7414 26.3732 98.7948 26.3532 98.8594 26.3532C98.929 26.3532 98.9837 26.3732 99.0234 26.4132C99.0632 26.4532 99.0831 26.5083 99.0831 26.5783V26.8709C99.2223 26.6908 99.3938 26.5508 99.5976 26.4507C99.8014 26.3507 100.02 26.3006 100.254 26.3006C100.542 26.3006 100.801 26.3719 101.029 26.5145C101.258 26.6571 101.439 26.8534 101.573 27.1035C101.708 26.8534 101.894 26.6571 102.133 26.5145C102.371 26.3719 102.64 26.3006 102.938 26.3006Z" fill="#7F43D6"/>
<path d="M107.434 26.3158C107.797 26.3158 108.122 26.4021 108.407 26.5746C108.693 26.7472 108.916 26.9861 109.075 27.2913C109.234 27.5964 109.313 27.944 109.313 28.3342C109.313 28.3993 109.293 28.4505 109.254 28.488C109.214 28.5255 109.162 28.5443 109.097 28.5443H105.973C105.988 28.8394 106.065 29.1033 106.204 29.3359C106.343 29.5685 106.53 29.7499 106.763 29.8799C106.997 30.01 107.258 30.075 107.546 30.075C107.74 30.075 107.935 30.0413 108.132 29.9737C108.328 29.9062 108.483 29.8174 108.598 29.7074C108.647 29.6673 108.699 29.6473 108.754 29.6473C108.809 29.6473 108.853 29.6623 108.888 29.6923C108.943 29.7373 108.97 29.7899 108.97 29.8499C108.97 29.8999 108.948 29.9475 108.903 29.9924C108.744 30.1375 108.537 30.2576 108.281 30.3526C108.025 30.4476 107.78 30.4952 107.546 30.4952C107.153 30.4952 106.804 30.4064 106.499 30.2288C106.193 30.0512 105.953 29.8036 105.779 29.486C105.605 29.1683 105.518 28.8094 105.518 28.4092C105.518 28.004 105.599 27.6426 105.76 27.325C105.922 27.0074 106.148 26.7597 106.439 26.5821C106.73 26.4045 107.061 26.3158 107.434 26.3158ZM107.434 26.736C107.047 26.736 106.72 26.866 106.454 27.1262C106.188 27.3862 106.03 27.7289 105.98 28.1541H108.881C108.846 27.7289 108.697 27.3862 108.433 27.1262C108.17 26.866 107.837 26.736 107.434 26.736Z" fill="#7F43D6"/>
<path d="M112.147 26.3006C112.51 26.3006 112.834 26.3756 113.12 26.5257C113.406 26.6758 113.629 26.8946 113.791 27.1823C113.952 27.4699 114.033 27.8138 114.033 28.214V30.2325C114.033 30.2975 114.012 30.3513 113.97 30.3938C113.928 30.4363 113.874 30.4576 113.809 30.4576C113.745 30.4576 113.691 30.4363 113.649 30.3938C113.607 30.3513 113.586 30.2975 113.586 30.2325V28.214C113.586 27.7388 113.453 27.3762 113.187 27.126C112.921 26.8759 112.574 26.7509 112.147 26.7509C111.883 26.7509 111.643 26.8021 111.427 26.9047C111.211 27.0073 111.041 27.1498 110.916 27.3324C110.792 27.5149 110.73 27.7163 110.73 27.9364V30.2325C110.73 30.2975 110.71 30.3513 110.67 30.3938C110.631 30.4363 110.576 30.4576 110.506 30.4576C110.442 30.4576 110.388 30.4363 110.346 30.3938C110.304 30.3513 110.283 30.2975 110.283 30.2325V26.5783C110.283 26.5083 110.304 26.4532 110.346 26.4132C110.388 26.3732 110.442 26.3532 110.506 26.3532C110.576 26.3532 110.631 26.3732 110.67 26.4132C110.71 26.4532 110.73 26.5083 110.73 26.5783V26.9684C110.899 26.7584 111.105 26.5946 111.349 26.477C111.592 26.3594 111.858 26.3006 112.147 26.3006Z" fill="#7F43D6"/>
<path d="M117.142 29.9998C117.212 29.9998 117.268 30.0211 117.31 30.0636C117.352 30.1061 117.373 30.1625 117.373 30.2325C117.373 30.2975 117.352 30.3513 117.31 30.3938C117.268 30.4363 117.212 30.4576 117.142 30.4576H116.971C116.697 30.4576 116.454 30.3951 116.24 30.27C116.026 30.1449 115.86 29.9736 115.741 29.756C115.621 29.5384 115.562 29.292 115.562 29.0169V26.9084H114.98C114.92 26.9084 114.872 26.8897 114.835 26.8522C114.797 26.8147 114.779 26.7659 114.779 26.7059C114.779 26.6458 114.797 26.597 114.835 26.5596C114.872 26.522 114.92 26.5033 114.98 26.5033H115.562V25.2802C115.562 25.2101 115.583 25.1539 115.625 25.1114C115.667 25.0688 115.721 25.0476 115.785 25.0476C115.855 25.0476 115.911 25.0688 115.953 25.1114C115.995 25.1539 116.017 25.2101 116.017 25.2802V26.5033H117.001C117.06 26.5033 117.109 26.522 117.146 26.5596C117.183 26.597 117.202 26.6458 117.202 26.7059C117.202 26.7659 117.183 26.8147 117.146 26.8522C117.109 26.8897 117.06 26.9084 117.001 26.9084H116.017V29.0169C116.017 29.3071 116.106 29.5434 116.285 29.726C116.464 29.9086 116.695 29.9998 116.978 29.9998H117.142Z" fill="#7F43D6"/>
<path d="M121.877 30.5027C121.589 30.5027 121.308 30.4515 121.034 30.3489C120.761 30.2464 120.535 30.0901 120.356 29.8799C120.321 29.8399 120.304 29.7949 120.304 29.7449C120.304 29.6748 120.336 29.6173 120.401 29.5723C120.43 29.5473 120.473 29.5348 120.527 29.5348C120.597 29.5348 120.654 29.5623 120.699 29.6173C120.947 29.9224 121.348 30.075 121.899 30.075C122.292 30.075 122.582 30.005 122.768 29.8649C122.955 29.7249 123.048 29.5447 123.048 29.3246C123.048 28.9295 122.667 28.6769 121.907 28.5668C121.425 28.4968 121.061 28.3643 120.814 28.1691C120.568 27.9741 120.445 27.739 120.445 27.4638C120.445 27.0987 120.578 26.8148 120.844 26.6122C121.11 26.4096 121.457 26.3083 121.884 26.3083C122.511 26.3083 122.986 26.5334 123.309 26.9836C123.339 27.0186 123.353 27.0611 123.353 27.1112C123.353 27.1812 123.314 27.2387 123.234 27.2838C123.184 27.3038 123.147 27.3137 123.122 27.3137C123.048 27.3137 122.986 27.2812 122.936 27.2162C122.682 26.8911 122.327 26.7285 121.87 26.7285C121.566 26.7285 121.325 26.7948 121.146 26.9273C120.967 27.0599 120.878 27.2237 120.878 27.4188C120.878 27.6189 120.964 27.779 121.135 27.899C121.307 28.0191 121.594 28.1092 121.996 28.1691C122.523 28.2442 122.902 28.3855 123.133 28.5931C123.365 28.8007 123.48 29.0521 123.48 29.3472C123.48 29.5773 123.407 29.7799 123.26 29.955C123.114 30.13 122.918 30.2651 122.675 30.3602C122.431 30.4552 122.165 30.5027 121.877 30.5027Z" fill="#7F43D6"/>
<path d="M127.73 26.3609C127.825 26.4009 127.872 26.4584 127.872 26.5334C127.872 26.5534 127.862 26.5885 127.842 26.6385L125.337 32.101C125.292 32.191 125.235 32.2361 125.165 32.2361C125.136 32.2361 125.101 32.2285 125.061 32.2135C124.967 32.1735 124.919 32.116 124.919 32.0409C124.919 32.0209 124.929 31.9859 124.949 31.9359L125.695 30.3151C125.69 30.3102 125.68 30.2926 125.665 30.2626L124.032 26.661C124.012 26.621 124.002 26.581 124.002 26.5409C124.002 26.4659 124.044 26.4084 124.129 26.3684C124.169 26.3483 124.208 26.3383 124.248 26.3383C124.323 26.3383 124.38 26.3809 124.42 26.4659L125.933 29.7974L127.454 26.4734C127.499 26.3833 127.556 26.3383 127.626 26.3383C127.661 26.3383 127.696 26.3459 127.73 26.3609Z" fill="#7F43D6"/>
<path d="M130.004 30.5027C129.716 30.5027 129.435 30.4515 129.162 30.3489C128.889 30.2464 128.662 30.0901 128.483 29.8799C128.449 29.8399 128.431 29.7949 128.431 29.7449C128.431 29.6748 128.464 29.6173 128.528 29.5723C128.558 29.5473 128.6 29.5348 128.655 29.5348C128.724 29.5348 128.782 29.5623 128.826 29.6173C129.075 29.9224 129.475 30.075 130.027 30.075C130.42 30.075 130.709 30.005 130.895 29.8649C131.082 29.7249 131.175 29.5447 131.175 29.3246C131.175 28.9295 130.795 28.6769 130.034 28.5668C129.552 28.4968 129.188 28.3643 128.942 28.1691C128.696 27.9741 128.573 27.739 128.573 27.4638C128.573 27.0987 128.706 26.8148 128.972 26.6122C129.238 26.4096 129.584 26.3083 130.012 26.3083C130.638 26.3083 131.113 26.5334 131.436 26.9836C131.466 27.0186 131.481 27.0611 131.481 27.1112C131.481 27.1812 131.441 27.2387 131.361 27.2838C131.312 27.3038 131.275 27.3137 131.25 27.3137C131.175 27.3137 131.113 27.2812 131.063 27.2162C130.81 26.8911 130.454 26.7285 129.997 26.7285C129.694 26.7285 129.453 26.7948 129.274 26.9273C129.095 27.0599 129.005 27.2237 129.005 27.4188C129.005 27.6189 129.091 27.779 129.263 27.899C129.434 28.0191 129.721 28.1092 130.124 28.1691C130.651 28.2442 131.03 28.3855 131.261 28.5931C131.492 28.8007 131.608 29.0521 131.608 29.3472C131.608 29.5773 131.534 29.7799 131.388 29.955C131.241 30.13 131.046 30.2651 130.802 30.3602C130.559 30.4552 130.293 30.5027 130.004 30.5027Z" fill="#7F43D6"/>
<path d="M134.456 29.9998C134.525 29.9998 134.581 30.0211 134.624 30.0636C134.666 30.1061 134.687 30.1625 134.687 30.2325C134.687 30.2975 134.666 30.3513 134.624 30.3938C134.581 30.4363 134.525 30.4576 134.456 30.4576H134.284C134.011 30.4576 133.767 30.3951 133.554 30.27C133.34 30.1449 133.173 29.9736 133.054 29.756C132.935 29.5384 132.875 29.292 132.875 29.0169V26.9084H132.294C132.234 26.9084 132.185 26.8897 132.148 26.8522C132.111 26.8147 132.092 26.7659 132.092 26.7059C132.092 26.6458 132.111 26.597 132.148 26.5596C132.185 26.522 132.234 26.5033 132.294 26.5033H132.875V25.2802C132.875 25.2101 132.896 25.1539 132.939 25.1114C132.981 25.0688 133.034 25.0476 133.099 25.0476C133.168 25.0476 133.224 25.0688 133.267 25.1114C133.309 25.1539 133.33 25.2101 133.33 25.2802V26.5033H134.314C134.374 26.5033 134.422 26.522 134.46 26.5596C134.497 26.597 134.516 26.6458 134.516 26.7059C134.516 26.7659 134.497 26.8147 134.46 26.8522C134.422 26.8897 134.374 26.9084 134.314 26.9084H133.33V29.0169C133.33 29.3071 133.419 29.5434 133.598 29.726C133.777 29.9086 134.008 29.9998 134.292 29.9998H134.456Z" fill="#7F43D6"/>
<path d="M137.311 26.3158C137.674 26.3158 137.999 26.4021 138.284 26.5746C138.57 26.7472 138.793 26.9861 138.952 27.2913C139.111 27.5964 139.19 27.944 139.19 28.3342C139.19 28.3993 139.171 28.4505 139.131 28.488C139.091 28.5255 139.039 28.5443 138.974 28.5443H135.85C135.865 28.8394 135.942 29.1033 136.081 29.3359C136.22 29.5685 136.407 29.7499 136.64 29.8799C136.874 30.01 137.135 30.075 137.423 30.075C137.617 30.075 137.812 30.0413 138.009 29.9737C138.205 29.9062 138.36 29.8174 138.475 29.7074C138.524 29.6673 138.577 29.6473 138.631 29.6473C138.686 29.6473 138.731 29.6623 138.765 29.6923C138.82 29.7373 138.848 29.7899 138.848 29.8499C138.848 29.8999 138.825 29.9475 138.78 29.9924C138.621 30.1375 138.414 30.2576 138.158 30.3526C137.902 30.4476 137.657 30.4952 137.423 30.4952C137.031 30.4952 136.681 30.4064 136.376 30.2288C136.07 30.0512 135.83 29.8036 135.656 29.486C135.482 29.1683 135.395 28.8094 135.395 28.4092C135.395 28.004 135.476 27.6426 135.638 27.325C135.799 27.0074 136.025 26.7597 136.316 26.5821C136.607 26.4045 136.939 26.3158 137.311 26.3158ZM137.311 26.736C136.924 26.736 136.597 26.866 136.331 27.1262C136.065 27.3862 135.907 27.7289 135.858 28.1541H138.758C138.723 27.7289 138.574 27.3862 138.311 27.1262C138.047 26.866 137.714 26.736 137.311 26.736Z" fill="#7F43D6"/>
<path d="M144.462 26.3006C144.76 26.3006 145.026 26.3756 145.26 26.5257C145.494 26.6758 145.675 26.8847 145.804 27.1523C145.933 27.4199 145.998 27.7238 145.998 28.064V30.2325C145.998 30.2975 145.978 30.3513 145.938 30.3938C145.899 30.4363 145.844 30.4576 145.774 30.4576C145.71 30.4576 145.656 30.4363 145.614 30.3938C145.572 30.3513 145.551 30.2975 145.551 30.2325V28.064C145.551 27.6788 145.449 27.3636 145.245 27.1185C145.041 26.8734 144.78 26.7509 144.462 26.7509C144.114 26.7509 143.833 26.8659 143.619 27.096C143.406 27.3261 143.304 27.6313 143.314 28.0114V28.064V30.2325C143.314 30.2975 143.294 30.3513 143.254 30.3938C143.214 30.4363 143.16 30.4576 143.09 30.4576C143.025 30.4576 142.972 30.4363 142.93 30.3938C142.888 30.3513 142.866 30.2975 142.866 30.2325V28.064C142.866 27.6788 142.764 27.3636 142.561 27.1185C142.357 26.8734 142.096 26.7509 141.778 26.7509C141.435 26.7509 141.154 26.8609 140.935 27.081C140.716 27.3011 140.607 27.5862 140.607 27.9364V30.2325C140.607 30.2975 140.587 30.3513 140.547 30.3938C140.508 30.4363 140.453 30.4576 140.383 30.4576C140.319 30.4576 140.265 30.4363 140.223 30.3938C140.181 30.3513 140.16 30.2975 140.16 30.2325V26.5783C140.16 26.5083 140.181 26.4532 140.223 26.4132C140.265 26.3732 140.319 26.3532 140.383 26.3532C140.453 26.3532 140.508 26.3732 140.547 26.4132C140.587 26.4532 140.607 26.5083 140.607 26.5783V26.8709C140.746 26.6908 140.918 26.5508 141.122 26.4507C141.325 26.3507 141.544 26.3006 141.778 26.3006C142.066 26.3006 142.324 26.3719 142.553 26.5145C142.782 26.6571 142.963 26.8534 143.098 27.1035C143.232 26.8534 143.418 26.6571 143.657 26.5145C143.895 26.3719 144.164 26.3006 144.462 26.3006Z" fill="#7F43D6"/>
<path d="M25.6073 19.986C24.975 19.986 24.359 19.8736 23.7594 19.6487C23.1597 19.4237 22.6637 19.0809 22.2712 18.6201C22.1949 18.5323 22.1568 18.4336 22.1568 18.3239C22.1568 18.1703 22.2276 18.0441 22.3694 17.9454C22.4348 17.8905 22.5275 17.8631 22.6473 17.8631C22.8 17.8631 22.9254 17.9234 23.0235 18.0441C23.5686 18.7133 24.4462 19.048 25.6564 19.048C26.5177 19.048 27.1527 18.8944 27.5615 18.5872C27.9704 18.28 28.1747 17.885 28.1747 17.4023C28.1747 16.5356 27.3407 15.9815 25.6727 15.7402C24.6152 15.5866 23.8166 15.2958 23.277 14.8679C22.7373 14.4401 22.4675 13.9244 22.4675 13.321C22.4675 12.5202 22.7591 11.8975 23.3424 11.4532C23.9256 11.0088 24.6861 10.7867 25.6237 10.7867C26.9973 10.7867 28.0385 11.2804 28.7471 12.2678C28.8125 12.3446 28.8452 12.4379 28.8452 12.5476C28.8452 12.7012 28.7581 12.8273 28.5836 12.9261C28.4746 12.9699 28.3928 12.9919 28.3383 12.9919C28.1747 12.9919 28.0385 12.9206 27.9294 12.7779C27.3735 12.0649 26.594 11.7083 25.5909 11.7083C24.9259 11.7083 24.3971 11.8536 24.0047 12.1444C23.6122 12.4351 23.416 12.7944 23.416 13.2223C23.416 13.6612 23.604 14.0122 23.9802 14.2755C24.3563 14.5388 24.9859 14.7363 25.869 14.8679C27.0246 15.0325 27.8559 15.3425 28.3628 15.7978C28.8697 16.2531 29.1232 16.8044 29.1232 17.4517C29.1232 17.9563 28.9624 18.4007 28.6408 18.7847C28.3192 19.1687 27.8913 19.4649 27.3571 19.6733C26.8229 19.8818 26.2396 19.986 25.6073 19.986Z" fill="#7F43D6"/>
<path d="M38.4446 10.9019C38.6518 10.9897 38.7554 11.1159 38.7554 11.2804C38.7554 11.3243 38.7336 11.4011 38.69 11.5108L33.1953 23.4913C33.0972 23.6888 32.9717 23.7875 32.8191 23.7875C32.7538 23.7875 32.6774 23.7711 32.5902 23.7382C32.383 23.6504 32.2795 23.5242 32.2795 23.3597C32.2795 23.3158 32.3013 23.2389 32.3449 23.1292L33.9802 19.5746C33.9693 19.5636 33.9475 19.5252 33.9148 19.4594L30.3334 11.5602C30.2899 11.4724 30.2681 11.3847 30.2681 11.2969C30.2681 11.1323 30.3607 11.0062 30.5461 10.9184C30.6333 10.8744 30.7205 10.8525 30.8077 10.8525C30.9713 10.8525 31.0966 10.9458 31.1838 11.1323L34.5036 18.4391L37.8396 11.1487C37.9377 10.9513 38.0631 10.8525 38.2157 10.8525C38.292 10.8525 38.3683 10.869 38.4446 10.9019Z" fill="#7F43D6"/>
<path d="M49.8266 10.7704C50.4807 10.7704 51.064 10.935 51.5764 11.2641C52.0888 11.5933 52.4867 12.0513 52.7702 12.6383C53.0536 13.2253 53.1954 13.8917 53.1954 14.6378V19.3938C53.1954 19.5364 53.1518 19.6544 53.0645 19.7476C52.9773 19.8409 52.8574 19.8875 52.7047 19.8875C52.5631 19.8875 52.4458 19.8409 52.3531 19.7476C52.2605 19.6544 52.2142 19.5364 52.2142 19.3938V14.6378C52.2142 13.793 51.9907 13.1018 51.5437 12.5642C51.0967 12.0266 50.5243 11.7579 49.8266 11.7579C49.0634 11.7579 48.4474 12.0102 47.9787 12.5149C47.5099 13.0195 47.2864 13.6888 47.3082 14.5226V14.6378V19.3938C47.3082 19.5364 47.2646 19.6544 47.1773 19.7476C47.0902 19.8409 46.9702 19.8875 46.8176 19.8875C46.6759 19.8875 46.5586 19.8409 46.466 19.7476C46.3733 19.6544 46.327 19.5364 46.327 19.3938V14.6378C46.327 13.793 46.1035 13.1018 45.6565 12.5642C45.2096 12.0266 44.6372 11.7579 43.9395 11.7579C43.1872 11.7579 42.5712 11.9992 42.0915 12.4819C41.6118 12.9646 41.372 13.59 41.372 14.358V19.3938C41.372 19.5364 41.3284 19.6544 41.2412 19.7476C41.1539 19.8409 41.034 19.8875 40.8814 19.8875C40.7396 19.8875 40.6225 19.8409 40.5298 19.7476C40.4371 19.6544 40.3907 19.5364 40.3907 19.3938V11.3794C40.3907 11.2257 40.4371 11.1051 40.5298 11.0173C40.6225 10.9295 40.7396 10.8856 40.8814 10.8856C41.034 10.8856 41.1539 10.9295 41.2412 11.0173C41.3284 11.1051 41.372 11.2257 41.372 11.3794V12.0211C41.6773 11.6262 42.0534 11.319 42.5003 11.0996C42.9473 10.8801 43.4271 10.7704 43.9395 10.7704C44.5717 10.7704 45.1387 10.9268 45.6402 11.2395C46.1417 11.5521 46.5396 11.9828 46.8339 12.5313C47.1283 11.9828 47.5371 11.5521 48.0605 11.2395C48.5837 10.9268 49.1724 10.7704 49.8266 10.7704Z" fill="#7F43D6"/>
<path d="M60.0636 10.7867C60.914 10.7867 61.688 10.9869 62.3857 11.3874C63.0835 11.7878 63.6313 12.3391 64.0292 13.0413C64.4272 13.7434 64.6262 14.5279 64.6262 15.3946V19.3935C64.6262 19.5362 64.5826 19.6542 64.4953 19.7474C64.4081 19.8407 64.2882 19.8873 64.1355 19.8873C63.9939 19.8873 63.8766 19.8407 63.784 19.7474C63.6913 19.6542 63.645 19.5362 63.645 19.3935V18.11C63.2852 18.6914 62.7919 19.1494 62.165 19.4841C61.5381 19.8187 60.8377 19.986 60.0636 19.986C59.2024 19.986 58.4229 19.7858 57.7251 19.3854C57.0273 18.9849 56.4796 18.4336 56.0816 17.7315C55.6837 17.0292 55.4847 16.2503 55.4847 15.3946C55.4847 14.5279 55.6837 13.7434 56.0816 13.0413C56.4796 12.3391 57.0273 11.7878 57.7251 11.3874C58.4229 10.9869 59.2024 10.7867 60.0636 10.7867ZM60.0636 19.0644C60.7396 19.0644 61.3501 18.9053 61.8952 18.5872C62.4403 18.269 62.8682 17.8302 63.1789 17.2707C63.4896 16.7111 63.645 16.0857 63.645 15.3946C63.645 14.7034 63.4896 14.078 63.1789 13.5185C62.8682 12.959 62.4403 12.5174 61.8952 12.1938C61.3501 11.8701 60.7396 11.7083 60.0636 11.7083C59.3877 11.7083 58.7771 11.8701 58.2321 12.1938C57.687 12.5174 57.2563 12.959 56.9402 13.5185C56.624 14.078 56.4659 14.7034 56.4659 15.3946C56.4659 16.0857 56.624 16.7111 56.9402 17.2707C57.2563 17.8302 57.687 18.269 58.2321 18.5872C58.7771 18.9053 59.3877 19.0644 60.0636 19.0644Z" fill="#7F43D6"/>
<path d="M75.2395 7.03464C75.3922 7.03464 75.512 7.0785 75.5993 7.16628C75.6865 7.25407 75.7301 7.37478 75.7301 7.52836V15.444V15.477C75.7192 16.3218 75.512 17.0897 75.1087 17.7809C74.7053 18.4721 74.1575 19.0124 73.4652 19.4019C72.7729 19.7914 72.007 19.9861 71.1676 19.9861C70.3063 19.9861 69.5268 19.7859 68.829 19.3855C68.1313 18.985 67.5835 18.4337 67.1855 17.7316C66.7876 17.0293 66.5887 16.2449 66.5887 15.3782C66.5887 14.5225 66.7876 13.7435 67.1855 13.0414C67.5835 12.3392 68.1313 11.7879 68.829 11.3875C69.5268 10.987 70.3063 10.7868 71.1676 10.7868C71.9416 10.7868 72.6421 10.9541 73.269 11.2887C73.8958 11.6233 74.3891 12.0814 74.7489 12.6628V7.52836C74.7489 7.37478 74.7953 7.25407 74.888 7.16628C74.9806 7.0785 75.0978 7.03464 75.2395 7.03464ZM71.1676 19.0645C71.8435 19.0645 72.454 18.9027 72.9991 18.579C73.5442 18.2554 73.9722 17.8138 74.2829 17.2543C74.5935 16.6948 74.7489 16.0694 74.7489 15.3782C74.7489 14.687 74.5935 14.0617 74.2829 13.5022C73.9722 12.9426 73.5442 12.5037 72.9991 12.1856C72.454 11.8675 71.8435 11.7084 71.1676 11.7084C70.4916 11.7084 69.8811 11.8675 69.336 12.1856C68.7909 12.5037 68.3603 12.9426 68.0441 13.5022C67.7279 14.0617 67.5698 14.687 67.5698 15.3782C67.5698 16.0694 67.7279 16.6948 68.0441 17.2543C68.3603 17.8138 68.7909 18.2554 69.336 18.579C69.8811 18.9027 70.4916 19.0645 71.1676 19.0645Z" fill="#7F43D6"/>
<path d="M82.3859 10.8033C83.1818 10.8033 83.8932 10.9925 84.52 11.371C85.1469 11.7495 85.6348 12.2734 85.9836 12.9427C86.3325 13.6119 86.507 14.3744 86.507 15.2302C86.507 15.3728 86.4633 15.4852 86.3761 15.5675C86.2889 15.6498 86.1744 15.691 86.0327 15.691H79.1807C79.2134 16.3382 79.3824 16.917 79.6877 17.4271C79.9929 17.9373 80.4017 18.335 80.9141 18.6203C81.4265 18.9055 81.9989 19.0481 82.6312 19.0481C83.0564 19.0481 83.4843 18.9741 83.915 18.8259C84.3456 18.6779 84.6863 18.4831 84.937 18.2418C85.0461 18.154 85.1605 18.1101 85.2804 18.1101C85.4004 18.1101 85.4985 18.143 85.5748 18.2088C85.6947 18.3075 85.7547 18.4228 85.7547 18.5544C85.7547 18.6641 85.7056 18.7683 85.6075 18.8671C85.2586 19.1853 84.8035 19.4486 84.242 19.657C83.6806 19.8655 83.1436 19.9697 82.6312 19.9697C81.7699 19.9697 81.0041 19.7749 80.3336 19.3855C79.6631 18.996 79.1371 18.4529 78.7555 17.7563C78.3739 17.0596 78.1832 16.2724 78.1832 15.3947C78.1832 14.506 78.3603 13.7134 78.7146 13.0167C79.069 12.32 79.565 11.777 80.2028 11.3875C80.8405 10.998 81.5683 10.8033 82.3859 10.8033ZM82.3859 11.7249C81.5355 11.7249 80.8187 12.0101 80.2354 12.5807C79.6522 13.1511 79.3061 13.9027 79.197 14.8352H85.5585C85.4822 13.9027 85.1551 13.1511 84.5772 12.5807C83.9995 12.0101 83.269 11.7249 82.3859 11.7249Z" fill="#7F43D6"/>
<path d="M92.2633 19.9861C91.4238 19.9861 90.6661 19.7859 89.9902 19.3855C89.3143 18.985 88.7828 18.4338 88.3957 17.7316C88.0087 17.0294 87.8152 16.2505 87.8152 15.3947C87.8152 14.528 87.9951 13.7463 88.3549 13.0496C88.7146 12.353 89.2162 11.8044 89.8594 11.404C90.5026 11.0035 91.2221 10.8033 92.018 10.8033C92.7158 10.8033 93.3535 10.9404 93.9313 11.2147C94.5091 11.489 95.0107 11.8949 95.4358 12.4325C95.5121 12.5422 95.5503 12.6354 95.5503 12.7123C95.5503 12.8659 95.474 12.9866 95.3214 13.0743C95.245 13.1402 95.1578 13.1731 95.0597 13.1731C94.907 13.1731 94.7817 13.1072 94.6836 12.9756C93.9859 12.1418 93.0973 11.7249 92.018 11.7249C91.3857 11.7249 90.8242 11.8812 90.3336 12.1939C89.843 12.5065 89.4641 12.9427 89.197 13.5022C88.9299 14.0617 88.7964 14.6926 88.7964 15.3947C88.7964 16.0859 88.9436 16.7112 89.238 17.2708C89.5323 17.8303 89.9411 18.2692 90.4644 18.5873C90.9877 18.9055 91.5874 19.0645 92.2633 19.0645C93.2227 19.0645 93.9913 18.7958 94.5691 18.2582C94.6672 18.1595 94.7817 18.1101 94.9125 18.1101C95.0325 18.1101 95.1306 18.1485 95.2069 18.2253C95.3159 18.324 95.3704 18.4447 95.3704 18.5873C95.3704 18.708 95.3268 18.8068 95.2396 18.8835C94.858 19.2346 94.411 19.5062 93.8986 19.6982C93.3862 19.8902 92.8411 19.9861 92.2633 19.9861Z" fill="#7F43D6"/>
<path d="M102.092 19.986C101.23 19.986 100.451 19.7858 99.753 19.3854C99.0553 18.9849 98.5075 18.4336 98.1095 17.7315C97.7116 17.0292 97.5127 16.2503 97.5127 15.3946C97.5127 14.5279 97.7116 13.7434 98.1095 13.0413C98.5075 12.3391 99.0553 11.7878 99.753 11.3874C100.451 10.9869 101.23 10.7867 102.092 10.7867C102.942 10.7867 103.716 10.9869 104.414 11.3874C105.112 11.7878 105.659 12.3391 106.057 13.0413C106.455 13.7434 106.654 14.5279 106.654 15.3946C106.654 16.2503 106.455 17.0292 106.057 17.7315C105.659 18.4336 105.112 18.9849 104.414 19.3854C103.716 19.7858 102.942 19.986 102.092 19.986ZM102.092 19.0644C102.768 19.0644 103.378 18.9053 103.923 18.5872C104.468 18.269 104.896 17.8302 105.207 17.2707C105.518 16.7111 105.673 16.0857 105.673 15.3946C105.673 14.7034 105.518 14.078 105.207 13.5185C104.896 12.959 104.468 12.5174 103.923 12.1938C103.378 11.8701 102.768 11.7083 102.092 11.7083C101.416 11.7083 100.805 11.8701 100.26 12.1938C99.7149 12.5174 99.2843 12.959 98.9681 13.5185C98.6519 14.078 98.4938 14.7034 98.4938 15.3946C98.4938 16.0857 98.6519 16.7111 98.9681 17.2707C99.2843 17.8302 99.7149 18.269 100.26 18.5872C100.805 18.9053 101.416 19.0644 102.092 19.0644Z" fill="#7F43D6"/>
<path d="M109.287 20.1507C109.047 20.1507 108.848 20.0711 108.69 19.9121C108.532 19.753 108.453 19.5527 108.453 19.3114C108.453 19.081 108.535 18.8863 108.698 18.7272C108.862 18.5681 109.058 18.4886 109.287 18.4886C109.516 18.4886 109.709 18.5681 109.868 18.7272C110.026 18.8863 110.105 19.081 110.105 19.3114C110.105 19.5418 110.026 19.7392 109.868 19.9038C109.709 20.0684 109.516 20.1507 109.287 20.1507Z" fill="#7F43D6"/>
<path d="M116.352 19.9861C115.512 19.9861 114.754 19.7859 114.078 19.3855C113.403 18.985 112.871 18.4338 112.484 17.7316C112.097 17.0294 111.904 16.2505 111.904 15.3947C111.904 14.528 112.083 13.7463 112.443 13.0496C112.803 12.353 113.304 11.8044 113.948 11.404C114.591 11.0035 115.31 10.8033 116.106 10.8033C116.804 10.8033 117.442 10.9404 118.02 11.2147C118.597 11.489 119.099 11.8949 119.524 12.4325C119.6 12.5422 119.639 12.6354 119.639 12.7123C119.639 12.8659 119.562 12.9866 119.41 13.0743C119.333 13.1402 119.246 13.1731 119.148 13.1731C118.995 13.1731 118.87 13.1072 118.772 12.9756C118.074 12.1418 117.186 11.7249 116.106 11.7249C115.474 11.7249 114.912 11.8812 114.422 12.1939C113.931 12.5065 113.552 12.9427 113.285 13.5022C113.018 14.0617 112.885 14.6926 112.885 15.3947C112.885 16.0859 113.032 16.7112 113.326 17.2708C113.621 17.8303 114.029 18.2692 114.553 18.5873C115.076 18.9055 115.676 19.0645 116.352 19.0645C117.311 19.0645 118.08 18.7958 118.657 18.2582C118.755 18.1595 118.87 18.1101 119.001 18.1101C119.121 18.1101 119.219 18.1485 119.295 18.2253C119.404 18.324 119.459 18.4447 119.459 18.5873C119.459 18.708 119.415 18.8068 119.328 18.8835C118.946 19.2346 118.499 19.5062 117.987 19.6982C117.474 19.8902 116.929 19.9861 116.352 19.9861Z" fill="#7F43D6"/>
<path d="M126.18 19.986C125.319 19.986 124.539 19.7858 123.841 19.3854C123.144 18.9849 122.596 18.4336 122.198 17.7315C121.8 17.0292 121.601 16.2503 121.601 15.3946C121.601 14.5279 121.8 13.7434 122.198 13.0413C122.596 12.3391 123.144 11.7878 123.841 11.3874C124.539 10.9869 125.319 10.7867 126.18 10.7867C127.03 10.7867 127.804 10.9869 128.502 11.3874C129.2 11.7878 129.748 12.3391 130.145 13.0413C130.543 13.7434 130.742 14.5279 130.742 15.3946C130.742 16.2503 130.543 17.0292 130.145 17.7315C129.748 18.4336 129.2 18.9849 128.502 19.3854C127.804 19.7858 127.03 19.986 126.18 19.986ZM126.18 19.0644C126.856 19.0644 127.466 18.9053 128.011 18.5872C128.556 18.269 128.984 17.8302 129.295 17.2707C129.606 16.7111 129.761 16.0857 129.761 15.3946C129.761 14.7034 129.606 14.078 129.295 13.5185C128.984 12.959 128.556 12.5174 128.011 12.1938C127.466 11.8701 126.856 11.7083 126.18 11.7083C125.504 11.7083 124.893 11.8701 124.348 12.1938C123.803 12.5174 123.373 12.959 123.056 13.5185C122.74 14.078 122.582 14.7034 122.582 15.3946C122.582 16.0857 122.74 16.7111 123.056 17.2707C123.373 17.8302 123.803 18.269 124.348 18.5872C124.893 18.9053 125.504 19.0644 126.18 19.0644Z" fill="#7F43D6"/>
<path d="M142.631 10.7704C143.285 10.7704 143.869 10.935 144.381 11.2641C144.893 11.5933 145.291 12.0513 145.575 12.6383C145.858 13.2253 146 13.8917 146 14.6378V19.3938C146 19.5364 145.956 19.6544 145.869 19.7476C145.782 19.8409 145.662 19.8875 145.509 19.8875C145.368 19.8875 145.25 19.8409 145.158 19.7476C145.065 19.6544 145.019 19.5364 145.019 19.3938V14.6378C145.019 13.793 144.795 13.1018 144.348 12.5642C143.901 12.0266 143.329 11.7579 142.631 11.7579C141.868 11.7579 141.252 12.0102 140.783 12.5149C140.314 13.0195 140.091 13.6888 140.113 14.5226V14.6378V19.3938C140.113 19.5364 140.069 19.6544 139.982 19.7476C139.895 19.8409 139.775 19.8875 139.622 19.8875C139.48 19.8875 139.363 19.8409 139.271 19.7476C139.178 19.6544 139.132 19.5364 139.132 19.3938V14.6378C139.132 13.793 138.908 13.1018 138.461 12.5642C138.014 12.0266 137.442 11.7579 136.744 11.7579C135.992 11.7579 135.376 11.9992 134.896 12.4819C134.416 12.9646 134.177 13.59 134.177 14.358V19.3938C134.177 19.5364 134.133 19.6544 134.046 19.7476C133.959 19.8409 133.839 19.8875 133.686 19.8875C133.544 19.8875 133.427 19.8409 133.334 19.7476C133.242 19.6544 133.195 19.5364 133.195 19.3938V11.3794C133.195 11.2257 133.242 11.1051 133.334 11.0173C133.427 10.9295 133.544 10.8856 133.686 10.8856C133.839 10.8856 133.959 10.9295 134.046 11.0173C134.133 11.1051 134.177 11.2257 134.177 11.3794V12.0211C134.482 11.6262 134.858 11.319 135.305 11.0996C135.752 10.8801 136.232 10.7704 136.744 10.7704C137.376 10.7704 137.943 10.9268 138.445 11.2395C138.946 11.5521 139.344 11.9828 139.639 12.5313C139.933 11.9828 140.342 11.5521 140.865 11.2395C141.388 10.9268 141.977 10.7704 142.631 10.7704Z" fill="#7F43D6"/>
<defs>
<linearGradient id="paint0_linear" x1="7.39507" y1="3.28565" x2="7.39514" y2="38.1109" gradientUnits="userSpaceOnUse">
<stop stop-color="#7F43D6"/>
<stop offset="0.6" stop-color="#4844A6"/>
<stop offset="1" stop-color="#114675"/>
</linearGradient>
</defs>
</svg>
