<svg width="20" height="12" viewBox="0 0 20 12" fill="none" xmlns="http://www.w3.org/2000/svg">
<path d="M18.6221 0.214951H12.918C11.885 0.214951 11.3675 1.5092 12.098 2.26623L13.6635 3.88843L10.1185 7.56241L6.57361 3.88893C5.96967 3.26308 4.99079 3.26308 4.38733 3.88893L1.06852 7.32809C0.766548 7.64102 0.766548 8.1482 1.06852 8.46113L2.16142 9.59367C2.46339 9.90659 2.95283 9.90659 3.25481 9.59367L5.48023 7.28704L9.02515 10.9605C9.6291 11.5864 10.608 11.5864 11.2114 10.9605L15.8498 6.154L17.4152 7.7762C18.1457 8.53323 19.3947 7.997 19.3947 6.92655V1.01604C19.3952 0.573436 19.0492 0.214951 18.6221 0.214951Z" fill="#3CE600"/>
</svg>
