<svg width="19" height="12" viewBox="0 0 19 12" fill="none" xmlns="http://www.w3.org/2000/svg">
<path d="M17.9774 11.4299L12.386 11.4299C11.3734 11.4299 10.8662 10.1356 11.5823 9.37862L13.1168 7.75642L9.6419 4.08244L6.16702 7.75592C5.57501 8.38177 4.61548 8.38177 4.02394 7.75592L0.77071 4.31676C0.474704 4.00383 0.474704 3.49665 0.77071 3.18372L1.84201 2.05119C2.13802 1.73826 2.61779 1.73826 2.91379 2.05119L5.09524 4.35781L8.57012 0.684334C9.16213 0.0584858 10.1217 0.0584858 10.7132 0.684334L15.2599 5.49085L16.7944 3.86865C17.5105 3.11162 18.7347 3.64785 18.7347 4.7183L18.7347 10.6288C18.7352 11.0714 18.3961 11.4299 17.9774 11.4299Z" fill="#E60000"/>
</svg>
